<?xml version="1.0" encoding="UTF-8" standalone="yes"?><svg xmlns="http://www.w3.org/2000/svg" xmlns:xlink="http://www.w3.org/1999/xlink" height="738px" style="width:708px;height:738px;" version="1.1" viewBox="0 0 708 738" width="708px"><defs><filter height="300%" id="f1" width="300%" x="-1" y="-1"><feGaussianBlur result="blurOut" stdDeviation="2.0"/><feColorMatrix in="blurOut" result="blurOut2" type="matrix" values="0 0 0 0 0 0 0 0 0 0 0 0 0 0 0 0 0 0 .4 0"/><feOffset dx="4.0" dy="4.0" in="blurOut2" result="blurOut3"/><feBlend in="SourceGraphic" in2="blurOut3" mode="normal"/></filter></defs><g><text fill="#000000" font-family="sans-serif" font-size="18" lengthAdjust="spacingAndGlyphs" textLength="270" x="228.5" y="16.708">Wikispeech: basic functionality</text><rect fill="#FEFECE" filter="url(#f1)" height="52.5938" style="stroke: #A80036; stroke-width: 1.5;" width="270" x="147" y="29.4531"/><rect fill="#FEFECE" height="5" style="stroke: #A80036; stroke-width: 1.5;" width="10" x="142" y="34.4531"/><rect fill="#FEFECE" height="5" style="stroke: #A80036; stroke-width: 1.5;" width="10" x="142" y="72.0469"/><text fill="#000000" font-family="sans-serif" font-size="14" lengthAdjust="spacingAndGlyphs" textLength="39" x="262.5" y="52.4482">Client</text><text fill="#000000" font-family="sans-serif" font-size="14" lengthAdjust="spacingAndGlyphs" textLength="250" x="157" y="68.7451">(Browser javascript/other http client)</text><rect fill="#FEFECE" filter="url(#f1)" height="36.2969" style="stroke: #A80036; stroke-width: 1.5;" width="116" x="224.5" y="272.9531"/><rect fill="#FEFECE" height="5" style="stroke: #A80036; stroke-width: 1.5;" width="10" x="219.5" y="277.9531"/><rect fill="#FEFECE" height="5" style="stroke: #A80036; stroke-width: 1.5;" width="10" x="219.5" y="299.25"/><text fill="#000000" font-family="sans-serif" font-size="14" lengthAdjust="spacingAndGlyphs" textLength="96" x="234.5" y="295.9482">1. Wikispeech</text><a target="_top" xlink:href="textprocessing2.svg" xlink:title="textprocessing2.svg"><rect fill="#ADD8E6" filter="url(#f1)" height="36.2969" style="stroke: #A80036; stroke-width: 1.5;" width="144" x="6" y="498.9531"/><rect fill="#ADD8E6" height="5" style="stroke: #A80036; stroke-width: 1.5;" width="10" x="1" y="503.9531"/><rect fill="#ADD8E6" height="5" style="stroke: #A80036; stroke-width: 1.5;" width="10" x="1" y="525.25"/><text fill="#000000" font-family="sans-serif" font-size="14" lengthAdjust="spacingAndGlyphs" textLength="124" x="16" y="521.9482">2. Textprocessing</text></a><a target="_top" xlink:href="Lexicon.svg" xlink:title="Lexicon.svg"><rect fill="#ADD8E6" filter="url(#f1)" height="36.2969" style="stroke: #A80036; stroke-width: 1.5;" width="89" x="33.75" y="692.9531"/><rect fill="#ADD8E6" height="5" style="stroke: #A80036; stroke-width: 1.5;" width="10" x="28.75" y="697.9531"/><rect fill="#ADD8E6" height="5" style="stroke: #A80036; stroke-width: 1.5;" width="10" x="28.75" y="719.25"/><text fill="#000000" font-family="sans-serif" font-size="14" lengthAdjust="spacingAndGlyphs" textLength="69" x="43.75" y="715.9482">3. Lexicon</text></a><rect fill="#FEFECE" filter="url(#f1)" height="36.2969" style="stroke: #A80036; stroke-width: 1.5;" width="104" x="230" y="498.9531"/><rect fill="#FEFECE" height="5" style="stroke: #A80036; stroke-width: 1.5;" width="10" x="225" y="503.9531"/><rect fill="#FEFECE" height="5" style="stroke: #A80036; stroke-width: 1.5;" width="10" x="225" y="525.25"/><text fill="#000000" font-family="sans-serif" font-size="14" lengthAdjust="spacingAndGlyphs" textLength="84" x="240" y="521.9482">4. Synthesis</text><rect fill="#FEFECE" filter="url(#f1)" height="36.2969" style="stroke: #A80036; stroke-width: 1.5;" width="116" x="465.5" y="498.9531"/><rect fill="#FEFECE" height="5" style="stroke: #A80036; stroke-width: 1.5;" width="10" x="460.5" y="503.9531"/><rect fill="#FEFECE" height="5" style="stroke: #A80036; stroke-width: 1.5;" width="10" x="460.5" y="525.25"/><text fill="#000000" font-family="sans-serif" font-size="14" lengthAdjust="spacingAndGlyphs" textLength="96" x="475.5" y="521.9482">5. Recordings</text><a target="_top" xlink:href="WikispeechApi.svg" xlink:title="WikispeechApi.svg"><ellipse cx="282" cy="185.9531" fill="#ADD8E6" filter="url(#f1)" rx="8" ry="8" style="stroke: #A80036; stroke-width: 2.0;"/><text fill="#000000" font-family="sans-serif" font-size="14" lengthAdjust="spacingAndGlyphs" textLength="100" x="232" y="207.9482">WikispeechApi</text></a><ellipse cx="78" cy="411.9531" fill="#FEFECE" filter="url(#f1)" rx="8" ry="8" style="stroke: #A80036; stroke-width: 2.0;"/><text fill="#000000" font-family="sans-serif" font-size="14" lengthAdjust="spacingAndGlyphs" textLength="128" x="14" y="433.9482">TextprocessingApi</text><ellipse cx="78.25" cy="605.9531" fill="#FEFECE" filter="url(#f1)" rx="8" ry="8" style="stroke: #A80036; stroke-width: 2.0;"/><text fill="#000000" font-family="sans-serif" font-size="14" lengthAdjust="spacingAndGlyphs" textLength="73" x="41.75" y="627.9482">LexiconApi</text><ellipse cx="282.5" cy="411.9531" fill="#FEFECE" filter="url(#f1)" rx="8" ry="8" style="stroke: #A80036; stroke-width: 2.0;"/><text fill="#000000" font-family="sans-serif" font-size="14" lengthAdjust="spacingAndGlyphs" textLength="88" x="238.5" y="433.9482">SynthesisApi</text><ellipse cx="523" cy="411.9531" fill="#FEFECE" filter="url(#f1)" rx="8" ry="8" style="stroke: #A80036; stroke-width: 2.0;"/><text fill="#000000" font-family="sans-serif" font-size="14" lengthAdjust="spacingAndGlyphs" textLength="92" x="477" y="433.9482">RecordingApi</text><path d="M282,82.5341 C282,110.2341 282,153.5701 282,176.8601 " fill="none" style="stroke: #A80036; stroke-width: 1.0;"/><text fill="#000000" font-family="sans-serif" font-size="13" lengthAdjust="spacingAndGlyphs" textLength="135" x="289.5" y="126.52">Send text/html/textId</text><text fill="#000000" font-family="sans-serif" font-size="13" lengthAdjust="spacingAndGlyphs" textLength="148" x="283" y="141.6528">Receive audio+markup</text><path d="M282,211.0681 C282,228.2201 282,255.2541 282,272.7941 " fill="none" style="stroke: #A80036; stroke-width: 1.0;"/><path d="M218.933,294.7391 C182.18,299.5041 137.26,311.1731 107,338.9531 C90.5298,354.0741 83.398,379.2761 80.3195,397.3551 " fill="none" style="stroke: #A80036; stroke-width: 1.0;"/><polygon fill="#A80036" points="79.4883,402.7181,84.8194,394.4369,80.254,397.7771,76.9138,393.2117,79.4883,402.7181" style="stroke: #A80036; stroke-width: 1.0;"/><polygon fill="#A80036" points="224.294,294.0851,214.8757,291.2049,219.3308,294.6909,215.8449,299.146,224.294,294.0851" style="stroke: #A80036; stroke-width: 1.0;"/><text fill="#000000" font-family="sans-serif" font-size="13" lengthAdjust="spacingAndGlyphs" textLength="95" x="141" y="352.52">Send text/html</text><text fill="#000000" font-family="sans-serif" font-size="13" lengthAdjust="spacingAndGlyphs" textLength="161" x="108" y="367.6528">Receive linguistic markup</text><path d="M280.266,314.5301 C279.75,322.2691 279.254,330.9851 279,338.9531 C278.518,354.0561 278.508,357.8501 279,372.9531 C279.263,381.0121 279.783,389.8521 280.318,397.6111 " fill="none" style="stroke: #A80036; stroke-width: 1.0;"/><polygon fill="#A80036" points="280.687,402.7861,284.0339,393.5234,280.3299,397.7989,276.0543,394.0948,280.687,402.7861" style="stroke: #A80036; stroke-width: 1.0;"/><polygon fill="#A80036" points="280.624,309.3501,276.0137,318.0533,280.2796,314.3383,283.9947,318.6042,280.624,309.3501" style="stroke: #A80036; stroke-width: 1.0;"/><text fill="#000000" font-family="sans-serif" font-size="13" lengthAdjust="spacingAndGlyphs" textLength="145" x="306.5" y="352.52">Send linguistic markup</text><text fill="#000000" font-family="sans-serif" font-size="13" lengthAdjust="spacingAndGlyphs" textLength="198" x="280" y="367.6528">Receive audio+speech markup</text><path d="M282,437.0681 C282,454.2201 282,481.2541 282,498.7941 " fill="none" style="stroke: #A80036; stroke-width: 1.0;"/><path d="M344.727,292.8201 C388.011,296.4541 444.631,307.5771 484,338.9531 C502.555,353.7411 512.883,379.5741 518.177,397.8801 " fill="none" style="stroke: #A80036; stroke-width: 1.0;"/><polygon fill="#A80036" points="519.539,402.8281,521.0063,393.0892,518.2117,398.0075,513.2934,395.2129,519.539,402.8281" style="stroke: #A80036; stroke-width: 1.0;"/><polygon fill="#A80036" points="339.517,292.4131,348.1775,297.103,344.5018,292.8032,348.8016,289.1274,339.517,292.4131" style="stroke: #A80036; stroke-width: 1.0;"/><text fill="#000000" font-family="sans-serif" font-size="13" lengthAdjust="spacingAndGlyphs" textLength="77" x="569.5" y="352.52">Send text id</text><text fill="#000000" font-family="sans-serif" font-size="13" lengthAdjust="spacingAndGlyphs" textLength="198" x="509" y="367.6528">Receive audio+speech markup</text><path d="M523,437.0681 C523,454.2201 523,481.2541 523,498.7941 " fill="none" style="stroke: #A80036; stroke-width: 1.0;"/><path d="M78,437.0681 C78,454.2201 78,481.2541 78,498.7941 " fill="none" style="stroke: #A80036; stroke-width: 1.0;"/><path d="M78,540.5491 C78,556.0051 78,576.3671 78,591.5601 " fill="none" style="stroke: #A80036; stroke-width: 1.0;"/><polygon fill="#A80036" points="78,596.9051,82,587.9051,78,591.9051,74,587.9051,78,596.9051" style="stroke: #A80036; stroke-width: 1.0;"/><polygon fill="#A80036" points="78,535.3771,74,544.3771,78,540.3771,82,544.3771,78,535.3771" style="stroke: #A80036; stroke-width: 1.0;"/><path d="M78,631.0686 C78,648.2203 78,675.2538 78,692.794 " fill="none" style="stroke: #A80036; stroke-width: 1.0;"/></g></svg>