<?xml version="1.0" encoding="UTF-8" standalone="yes"?><svg xmlns="http://www.w3.org/2000/svg" xmlns:xlink="http://www.w3.org/1999/xlink" height="729px" style="width:461px;height:729px;" version="1.1" viewBox="0 0 461 729" width="461px"><defs><filter height="300%" id="f1" width="300%" x="-1" y="-1"><feGaussianBlur result="blurOut" stdDeviation="2.0"/><feColorMatrix in="blurOut" result="blurOut2" type="matrix" values="0 0 0 0 0 0 0 0 0 0 0 0 0 0 0 0 0 0 .4 0"/><feOffset dx="4.0" dy="4.0" in="blurOut2" result="blurOut3"/><feBlend in="SourceGraphic" in2="blurOut3" mode="normal"/></filter></defs><g><text fill="#000000" font-family="sans-serif" font-size="18" lengthAdjust="spacingAndGlyphs" textLength="270" x="104.5" y="16.708">Wikispeech: basic functionality</text><rect fill="#FEFECE" filter="url(#f1)" height="52.5938" style="stroke: #A80036; stroke-width: 1.5;" width="270" x="44" y="28.9531"/><rect fill="#FEFECE" height="5" style="stroke: #A80036; stroke-width: 1.5;" width="10" x="39" y="33.9531"/><rect fill="#FEFECE" height="5" style="stroke: #A80036; stroke-width: 1.5;" width="10" x="39" y="71.5469"/><text fill="#000000" font-family="sans-serif" font-size="14" lengthAdjust="spacingAndGlyphs" textLength="39" x="159.5" y="51.9482">Client</text><text fill="#000000" font-family="sans-serif" font-size="14" lengthAdjust="spacingAndGlyphs" textLength="250" x="54" y="68.2451">(Browser javascript/other http client)</text><rect fill="#FEFECE" filter="url(#f1)" height="36.2969" style="stroke: #A80036; stroke-width: 1.5;" width="116" x="121" y="268.9531"/><rect fill="#FEFECE" height="5" style="stroke: #A80036; stroke-width: 1.5;" width="10" x="116" y="273.9531"/><rect fill="#FEFECE" height="5" style="stroke: #A80036; stroke-width: 1.5;" width="10" x="116" y="295.25"/><text fill="#000000" font-family="sans-serif" font-size="14" lengthAdjust="spacingAndGlyphs" textLength="96" x="131" y="291.9482">1. Wikispeech</text><a target="_top" xlink:href="textprocessing2.svg" xlink:title="textprocessing2.svg"><rect fill="#ADD8E6" filter="url(#f1)" height="36.2969" style="stroke: #A80036; stroke-width: 1.5;" width="144" x="6" y="491.9531"/><rect fill="#ADD8E6" height="5" style="stroke: #A80036; stroke-width: 1.5;" width="10" x="1" y="496.9531"/><rect fill="#ADD8E6" height="5" style="stroke: #A80036; stroke-width: 1.5;" width="10" x="1" y="518.25"/><text fill="#000000" font-family="sans-serif" font-size="14" lengthAdjust="spacingAndGlyphs" textLength="124" x="16" y="514.9482">2. Textprocessing</text></a><a target="_top" xlink:href="Lexicon.svg" xlink:title="Lexicon.svg"><rect fill="#ADD8E6" filter="url(#f1)" height="36.2969" style="stroke: #A80036; stroke-width: 1.5;" width="89" x="33.5" y="683.9531"/><rect fill="#ADD8E6" height="5" style="stroke: #A80036; stroke-width: 1.5;" width="10" x="28.5" y="688.9531"/><rect fill="#ADD8E6" height="5" style="stroke: #A80036; stroke-width: 1.5;" width="10" x="28.5" y="710.25"/><text fill="#000000" font-family="sans-serif" font-size="14" lengthAdjust="spacingAndGlyphs" textLength="69" x="43.5" y="706.9482">3. Lexicon</text></a><rect fill="#FEFECE" filter="url(#f1)" height="36.2969" style="stroke: #A80036; stroke-width: 1.5;" width="104" x="229" y="491.9531"/><rect fill="#FEFECE" height="5" style="stroke: #A80036; stroke-width: 1.5;" width="10" x="224" y="496.9531"/><rect fill="#FEFECE" height="5" style="stroke: #A80036; stroke-width: 1.5;" width="10" x="224" y="518.25"/><text fill="#000000" font-family="sans-serif" font-size="14" lengthAdjust="spacingAndGlyphs" textLength="84" x="239" y="514.9482">4. Synthesis</text><a target="_top" xlink:href="WikispeechApi.svg" xlink:title="WikispeechApi.svg"><ellipse cx="179" cy="182.9531" fill="#ADD8E6" filter="url(#f1)" rx="8" ry="8" style="stroke: #A80036; stroke-width: 2.0;"/><text fill="#000000" font-family="sans-serif" font-size="14" lengthAdjust="spacingAndGlyphs" textLength="100" x="129" y="204.9482">WikispeechApi</text></a><ellipse cx="78" cy="405.9531" fill="#FEFECE" filter="url(#f1)" rx="8" ry="8" style="stroke: #A80036; stroke-width: 2.0;"/><text fill="#000000" font-family="sans-serif" font-size="14" lengthAdjust="spacingAndGlyphs" textLength="128" x="14" y="427.9482">TextprocessingApi</text><ellipse cx="78" cy="597.9531" fill="#FEFECE" filter="url(#f1)" rx="8" ry="8" style="stroke: #A80036; stroke-width: 2.0;"/><text fill="#000000" font-family="sans-serif" font-size="14" lengthAdjust="spacingAndGlyphs" textLength="73" x="41.5" y="619.9482">LexiconApi</text><ellipse cx="281" cy="405.9531" fill="#FEFECE" filter="url(#f1)" rx="8" ry="8" style="stroke: #A80036; stroke-width: 2.0;"/><text fill="#000000" font-family="sans-serif" font-size="14" lengthAdjust="spacingAndGlyphs" textLength="88" x="237" y="427.9482">SynthesisApi</text><ellipse cx="281" cy="597.9531" fill="#FEFECE" filter="url(#f1)" rx="8" ry="8" style="stroke: #A80036; stroke-width: 2.0;"/><text fill="#000000" font-family="sans-serif" font-size="14" lengthAdjust="spacingAndGlyphs" textLength="75" x="243.5" y="619.9482">TTSEngine</text><path d="M179,82.2235 C179,109.3721 179,150.5831 179,173.6887 " fill="none" style="stroke: #A80036; stroke-width: 1.0;"/><text fill="#000000" font-family="sans-serif" font-size="13" lengthAdjust="spacingAndGlyphs" textLength="135" x="186.5" y="125.02">Send text/html/textId</text><text fill="#000000" font-family="sans-serif" font-size="13" lengthAdjust="spacingAndGlyphs" textLength="148" x="180" y="140.1528">Receive audio+markup</text><path d="M179,208.116 C179,225.1584 179,251.1947 179,268.6313 " fill="none" style="stroke: #A80036; stroke-width: 1.0;"/><path d="M115.7991,302.7049 C99.7924,309.8504 84.47,320.1524 75,334.9531 C64.274,351.7168 66.661,374.8349 70.7475,391.7309 " fill="none" style="stroke: #A80036; stroke-width: 1.0;"/><polygon fill="#A80036" points="72.0577,396.7608,73.6598,387.0431,70.7973,391.9223,65.9181,389.0598,72.0577,396.7608" style="stroke: #A80036; stroke-width: 1.0;"/><polygon fill="#A80036" points="120.7829,300.5872,110.9354,300.4255,116.1811,302.5426,114.064,307.7884,120.7829,300.5872" style="stroke: #A80036; stroke-width: 1.0;"/><text fill="#000000" font-family="sans-serif" font-size="13" lengthAdjust="spacingAndGlyphs" textLength="95" x="109" y="348.02">Send text/html</text><text fill="#000000" font-family="sans-serif" font-size="13" lengthAdjust="spacingAndGlyphs" textLength="161" x="76" y="363.1528">Receive linguistic markup</text><path d="M212.4436,307.9836 C222.798,315.5954 233.6635,324.8348 242,334.9531 C256.1028,352.0702 266.7416,375.1413 273.3161,391.9302 " fill="none" style="stroke: #A80036; stroke-width: 1.0;"/><polygon fill="#A80036" points="275.2253,396.9253,275.7482,387.0904,273.4401,392.2549,268.2755,389.9467,275.2253,396.9253" style="stroke: #A80036; stroke-width: 1.0;"/><polygon fill="#A80036" points="208.3543,305.0401,213.3221,313.5443,212.4124,307.9611,217.9956,307.0514,208.3543,305.0401" style="stroke: #A80036; stroke-width: 1.0;"/><text fill="#000000" font-family="sans-serif" font-size="13" lengthAdjust="spacingAndGlyphs" textLength="145" x="288.5" y="348.02">Send linguistic markup</text><text fill="#000000" font-family="sans-serif" font-size="13" lengthAdjust="spacingAndGlyphs" textLength="198" x="262" y="363.1528">Receive audio+speech markup</text><path d="M281,431.116 C281,448.1584 281,474.1947 281,491.6313 " fill="none" style="stroke: #A80036; stroke-width: 1.0;"/><path d="M281,528.01 C281,545.4991 281,571.8185 281,588.944 " fill="none" style="stroke: #A80036; stroke-width: 1.0;"/><path d="M78,431.116 C78,448.1584 78,474.1947 78,491.6313 " fill="none" style="stroke: #A80036; stroke-width: 1.0;"/><path d="M78,533.1468 C78,548.4713 78,568.4474 78,583.5981 " fill="none" style="stroke: #A80036; stroke-width: 1.0;"/><polygon fill="#A80036" points="78,588.944,82,579.944,78,583.944,74,579.944,78,588.944" style="stroke: #A80036; stroke-width: 1.0;"/><polygon fill="#A80036" points="78,528.01,74,537.01,78,533.01,82,537.01,78,528.01" style="stroke: #A80036; stroke-width: 1.0;"/><path d="M78,623.116 C78,640.1584 78,666.1947 78,683.6313 " fill="none" style="stroke: #A80036; stroke-width: 1.0;"/></g></svg>