<?xml version="1.0" encoding="UTF-8" standalone="yes"?><svg xmlns="http://www.w3.org/2000/svg" xmlns:xlink="http://www.w3.org/1999/xlink" height="783px" style="width:530px;height:783px;" version="1.1" viewBox="0 0 530 783" width="530px"><defs><filter height="300%" id="f1" width="300%" x="-1" y="-1"><feGaussianBlur result="blurOut" stdDeviation="2.0"/><feColorMatrix in="blurOut" result="blurOut2" type="matrix" values="0 0 0 0 0 0 0 0 0 0 0 0 0 0 0 0 0 0 .4 0"/><feOffset dx="4.0" dy="4.0" in="blurOut2" result="blurOut3"/><feBlend in="SourceGraphic" in2="blurOut3" mode="normal"/></filter></defs><g><text fill="#000000" font-family="sans-serif" font-size="18" lengthAdjust="spacingAndGlyphs" textLength="369" x="89" y="16.708">Overview of extended client functionality</text><text fill="#000000" font-family="sans-serif" font-size="18" lengthAdjust="spacingAndGlyphs" textLength="344" x="101.5" y="37.6611">(light blue have an expanded diagram)</text><rect fill="#FEFECE" filter="url(#f1)" height="52.5938" style="stroke: #A80036; stroke-width: 1.5;" width="270" x="220.0732" y="49.9063"/><rect fill="#FEFECE" height="5" style="stroke: #A80036; stroke-width: 1.5;" width="10" x="215.0732" y="54.9063"/><rect fill="#FEFECE" height="5" style="stroke: #A80036; stroke-width: 1.5;" width="10" x="215.0732" y="92.5"/><text fill="#000000" font-family="sans-serif" font-size="14" lengthAdjust="spacingAndGlyphs" textLength="39" x="335.5732" y="72.9014">Client</text><text fill="#000000" font-family="sans-serif" font-size="14" lengthAdjust="spacingAndGlyphs" textLength="250" x="230.0732" y="89.1982">(Browser javascript/other http client)</text><rect fill="#FEFECE" filter="url(#f1)" height="36.2969" style="stroke: #A80036; stroke-width: 1.5;" width="99" x="262.5732" y="256.9063"/><rect fill="#FEFECE" height="5" style="stroke: #A80036; stroke-width: 1.5;" width="10" x="257.5732" y="261.9063"/><rect fill="#FEFECE" height="5" style="stroke: #A80036; stroke-width: 1.5;" width="10" x="257.5732" y="283.2031"/><text fill="#000000" font-family="sans-serif" font-size="14" lengthAdjust="spacingAndGlyphs" textLength="79" x="272.5732" y="279.9014">Wikispeech</text><a target="_top" xlink:href="textprocessing2.svg" xlink:title="textprocessing2.svg"><rect fill="#ADD8E6" filter="url(#f1)" height="36.2969" style="stroke: #A80036; stroke-width: 1.5;" width="127" x="348.5732" y="545.4063"/><rect fill="#ADD8E6" height="5" style="stroke: #A80036; stroke-width: 1.5;" width="10" x="343.5732" y="550.4063"/><rect fill="#ADD8E6" height="5" style="stroke: #A80036; stroke-width: 1.5;" width="10" x="343.5732" y="571.7031"/><text fill="#000000" font-family="sans-serif" font-size="14" lengthAdjust="spacingAndGlyphs" textLength="107" x="358.5732" y="568.4014">Textprocessing</text></a><a target="_top" xlink:href="Lexicon.svg" xlink:title="Lexicon.svg"><rect fill="#ADD8E6" filter="url(#f1)" height="36.2969" style="stroke: #A80036; stroke-width: 1.5;" width="72" x="434.0732" y="737.9063"/><rect fill="#ADD8E6" height="5" style="stroke: #A80036; stroke-width: 1.5;" width="10" x="429.0732" y="742.9063"/><rect fill="#ADD8E6" height="5" style="stroke: #A80036; stroke-width: 1.5;" width="10" x="429.0732" y="764.2031"/><text fill="#000000" font-family="sans-serif" font-size="14" lengthAdjust="spacingAndGlyphs" textLength="52" x="444.0732" y="760.9014">Lexicon</text></a><rect fill="#FEFECE" filter="url(#f1)" height="36.2969" style="stroke: #A80036; stroke-width: 1.5;" width="87" x="225.5732" y="446.9063"/><rect fill="#FEFECE" height="5" style="stroke: #A80036; stroke-width: 1.5;" width="10" x="220.5732" y="451.9063"/><rect fill="#FEFECE" height="5" style="stroke: #A80036; stroke-width: 1.5;" width="10" x="220.5732" y="473.2031"/><text fill="#000000" font-family="sans-serif" font-size="14" lengthAdjust="spacingAndGlyphs" textLength="67" x="235.5732" y="469.9014">Synthesis</text><a target="_top" xlink:href="WikispeechApi.svg" xlink:title="WikispeechApi.svg"><ellipse cx="355.0732" cy="171.9063" fill="#ADD8E6" filter="url(#f1)" rx="8" ry="8" style="stroke: #A80036; stroke-width: 2.0;"/><text fill="#000000" font-family="sans-serif" font-size="14" lengthAdjust="spacingAndGlyphs" textLength="100" x="305.0732" y="193.9014">WikispeechApi</text></a><polygon fill="#FBFB77" filter="url(#f1)" points="66.5732,167.4063,66.5732,192.5391,269.5732,192.5391,269.5732,177.4063,259.5732,167.4063,66.5732,167.4063" style="stroke: #A80036; stroke-width: 1.0;"/><polygon fill="#FBFB77" points="66.5732,167.4063,66.5732,192.5391,269.5732,192.5391,269.5732,185.4063,304.9961,179.9063,269.5732,177.4063,269.5732,177.4063,259.5732,167.4063,66.5732,167.4063" style="stroke: #A80036; stroke-width: 1.0;"/><line style="stroke: #A80036; stroke-width: 1.0;" x1="259.5732" x2="259.5732" y1="167.4063" y2="177.4063"/><line style="stroke: #A80036; stroke-width: 1.0;" x1="269.5732" x2="259.5732" y1="177.4063" y2="177.4063"/><text fill="#000000" font-family="sans-serif" font-size="13" lengthAdjust="spacingAndGlyphs" textLength="119" x="72.5732" y="184.4731">Basic functionality:</text><a target="_top" xlink:href="basic.svg" xlink:title="basic.svg"><text fill="#0000FF" font-family="sans-serif" font-size="13" lengthAdjust="spacingAndGlyphs" text-decoration="underline" textLength="59" x="195.5732" y="184.4731">basic.svg</text><line style="stroke: #0000FF; stroke-width: 1.0;" x1="195.5732" x2="254.5732" y1="186.4731" y2="186.4731"/></a><ellipse cx="412.0732" cy="456.9063" fill="#FEFECE" filter="url(#f1)" rx="8" ry="8" style="stroke: #A80036; stroke-width: 2.0;"/><text fill="#000000" font-family="sans-serif" font-size="14" lengthAdjust="spacingAndGlyphs" textLength="128" x="348.0732" y="478.9014">TextprocessingApi</text><ellipse cx="470.0732" cy="652.9063" fill="#FEFECE" filter="url(#f1)" rx="8" ry="8" style="stroke: #A80036; stroke-width: 2.0;"/><text fill="#000000" font-family="sans-serif" font-size="14" lengthAdjust="spacingAndGlyphs" textLength="73" x="433.5732" y="674.9014">LexiconApi</text><ellipse cx="269.0732" cy="361.9063" fill="#FEFECE" filter="url(#f1)" rx="8" ry="8" style="stroke: #A80036; stroke-width: 2.0;"/><text fill="#000000" font-family="sans-serif" font-size="14" lengthAdjust="spacingAndGlyphs" textLength="88" x="225.0732" y="383.9014">SynthesisApi</text><ellipse cx="144.0732" cy="456.9063" fill="#FEFECE" filter="url(#f1)" rx="8" ry="8" style="stroke: #A80036; stroke-width: 2.0;"/><text fill="#000000" font-family="sans-serif" font-size="14" lengthAdjust="spacingAndGlyphs" textLength="92" x="98.0732" y="478.9014">RecordingApi</text><path d="M94.5732,552.9063 C94.5732,542.9063 144.0732,542.9063 144.0732,542.9063 C144.0732,542.9063 193.5732,542.9063 193.5732,552.9063 L193.5732,574.2031 C193.5732,584.2031 144.0732,584.2031 144.0732,584.2031 C144.0732,584.2031 94.5732,584.2031 94.5732,574.2031 L94.5732,552.9063 " fill="#FEFECE" filter="url(#f1)" style="stroke: #000000; stroke-width: 1.5;"/><path d="M94.5732,552.9063 C94.5732,562.9063 144.0732,562.9063 144.0732,562.9063 C144.0732,562.9063 193.5732,562.9063 193.5732,552.9063 " fill="none" style="stroke: #000000; stroke-width: 1.5;"/><text fill="#000000" font-family="sans-serif" font-size="14" lengthAdjust="spacingAndGlyphs" textLength="79" x="104.5732" y="575.9014">Recordings</text><path d="M355.0732,108.4917 C355.0732,124.4534 355.0732,143.3474 355.0732,157.6907 " fill="none" style="stroke: #A80036; stroke-width: 1.0;"/><polygon fill="#A80036" points="355.0732,162.7555,359.0732,153.7555,355.0732,157.7555,351.0732,153.7555,355.0732,162.7555" style="stroke: #A80036; stroke-width: 1.0;"/><polygon fill="#A80036" points="355.0732,103.0601,351.0732,112.0601,355.0732,108.0601,359.0732,112.0601,355.0732,103.0601" style="stroke: #A80036; stroke-width: 1.0;"/><path d="M347.1863,197.3307 C339.5732,214.1504 328.0915,239.5169 320.3497,256.621 " fill="none" style="stroke: #A80036; stroke-width: 1.0;"/><path d="M324.0315,297.6271 C343.447,334.5166 381.5716,406.9533 400.6422,443.1874 " fill="none" style="stroke: #A80036; stroke-width: 1.0;"/><polygon fill="#A80036" points="403.0922,447.8425,402.4401,438.0152,400.7634,443.4179,395.3607,441.7413,403.0922,447.8425" style="stroke: #A80036; stroke-width: 1.0;"/><polygon fill="#A80036" points="321.6616,293.1243,322.3139,302.9515,323.9904,297.5488,329.3931,299.2253,321.6616,293.1243" style="stroke: #A80036; stroke-width: 1.0;"/><path d="M412.0732,482.0637 C412.0732,499.7018 412.0732,527.0667 412.0732,545.11 " fill="none" style="stroke: #A80036; stroke-width: 1.0;"/><path d="M301.7033,297.8165 C294.8472,312.9637 285.9061,332.7172 279.1174,347.7155 " fill="none" style="stroke: #A80036; stroke-width: 1.0;"/><polygon fill="#A80036" points="276.9038,352.6061,284.2592,346.0564,278.9657,348.051,276.9711,342.7574,276.9038,352.6061" style="stroke: #A80036; stroke-width: 1.0;"/><polygon fill="#A80036" points="303.7823,293.2233,296.4269,299.7729,301.7205,297.7783,303.7151,303.0719,303.7823,293.2233" style="stroke: #A80036; stroke-width: 1.0;"/><path d="M269.0732,387.3308 C269.0732,404.1504 269.0732,429.517 269.0732,446.621 " fill="none" style="stroke: #A80036; stroke-width: 1.0;"/><path d="M276.5352,295.8866 C254.6495,310.0368 227.0554,330.2212 207.0732,352.9063 C182.8431,380.4138 163.7631,418.7504 153.204,442.6826 " fill="none" style="stroke: #A80036; stroke-width: 1.0;"/><polygon fill="#A80036" points="151.0814,447.5618,158.3398,440.9048,153.0761,442.9769,151.004,437.7132,151.0814,447.5618" style="stroke: #A80036; stroke-width: 1.0;"/><polygon fill="#A80036" points="280.8322,293.1381,271.0952,294.6179,276.6201,295.8322,275.4058,301.3572,280.8322,293.1381" style="stroke: #A80036; stroke-width: 1.0;"/><path d="M144.0732,482.0637 C144.0732,498.9301 144.0732,524.6909 144.0732,542.6899 " fill="none" style="stroke: #A80036; stroke-width: 1.0;"/><path d="M425.5515,586.0639 C435.1017,602.118 447.8359,623.5247 457.2386,639.3309 " fill="none" style="stroke: #A80036; stroke-width: 1.0;"/><polygon fill="#A80036" points="459.7968,643.6314,458.633,633.8515,457.2404,639.3343,451.7576,637.9417,459.7968,643.6314" style="stroke: #A80036; stroke-width: 1.0;"/><polygon fill="#A80036" points="422.9825,581.7452,424.146,591.5251,425.5387,586.0424,431.0214,587.4352,422.9825,581.7452" style="stroke: #A80036; stroke-width: 1.0;"/><path d="M470.0732,678.3308 C470.0732,695.1504 470.0732,720.517 470.0732,737.621 " fill="none" style="stroke: #A80036; stroke-width: 1.0;"/><path d="M406.4387,105.8356 C457.757,139.5017 529.0732,199.7984 529.0732,274.9063 C529.0732,274.9063 529.0732,274.9063 529.0732,464.9063 C529.0732,530.7139 498.1997,603.8765 481.1192,639.3173 " fill="none" style="stroke: #A80036; stroke-width: 1.0; stroke-dasharray: 7.0,7.0;"/><polygon fill="#A80036" points="478.9061,643.8588,486.4446,637.5207,481.0965,639.3641,479.2531,634.016,478.9061,643.8588" style="stroke: #A80036; stroke-width: 1.0;"/><polygon fill="#A80036" points="402.1601,103.0598,407.5333,111.3138,406.3547,105.781,411.8874,104.6024,402.1601,103.0598" style="stroke: #A80036; stroke-width: 1.0;"/><path d="M387.2837,106.8705 C401.147,122.1892 415.8179,141.9376 423.0732,162.9063 C457.4887,262.3715 431.211,391.4009 418.2286,442.5797 " fill="none" style="stroke: #A80036; stroke-width: 1.0; stroke-dasharray: 7.0,7.0;"/><polygon fill="#A80036" points="416.9411,447.5729,423.0618,439.8568,418.1896,442.7312,415.3152,437.8591,416.9411,447.5729" style="stroke: #A80036; stroke-width: 1.0;"/><polygon fill="#A80036" points="383.7815,103.0734,386.9429,112.401,387.1714,106.7488,392.8236,106.9772,383.7815,103.0734" style="stroke: #A80036; stroke-width: 1.0;"/><path d="M214.6816,99.2197 C144.4849,113.789 70.0528,135.174 49.0732,162.9063 C-10.8769,242.1522 138.4331,317.4879 220.081,351.2903 " fill="none" style="stroke: #A80036; stroke-width: 1.0; stroke-dasharray: 7.0,7.0;"/><polygon fill="#A80036" points="224.8777,353.2606,218.0725,346.1409,220.2527,351.3607,215.0328,353.5409,224.8777,353.2606" style="stroke: #A80036; stroke-width: 1.0;"/><polygon fill="#A80036" points="219.7277,98.1825,210.1067,96.0765,214.8301,99.1892,211.7174,103.9127,219.7277,98.1825" style="stroke: #A80036; stroke-width: 1.0;"/><path d="M214.7518,96.218 C137.0898,110.3696 51.6028,132.3432 28.0732,162.9063 C-41.8841,253.7753 73.5434,391.8063 123.1394,443.9634 " fill="none" style="stroke: #A80036; stroke-width: 1.0; stroke-dasharray: 7.0,7.0;"/><polygon fill="#A80036" points="126.8771,447.8626,123.5368,438.5974,123.4171,444.253,117.7616,444.1334,126.8771,447.8626" style="stroke: #A80036; stroke-width: 1.0;"/><polygon fill="#A80036" points="219.8552,95.2972,210.2879,92.959,214.9347,96.1851,211.7085,100.8318,219.8552,95.2972" style="stroke: #A80036; stroke-width: 1.0;"/><path d="M246.4366,387.1101 C223.7824,404.3273 189.1359,430.6587 166.5413,447.8305 " fill="none" style="stroke: #A80036; stroke-width: 1.0; stroke-dasharray: 7.0,7.0;"/><path d="M294.9694,387.1101 C320.8858,404.3273 360.5215,430.6587 386.3696,447.8305 " fill="none" style="stroke: #A80036; stroke-width: 1.0; stroke-dasharray: 7.0,7.0;"/></g></svg>