<?xml version="1.0" encoding="UTF-8" standalone="yes"?><svg xmlns="http://www.w3.org/2000/svg" xmlns:xlink="http://www.w3.org/1999/xlink" height="785px" style="width:530px;height:785px;" version="1.1" viewBox="0 0 530 785" width="530px"><defs><filter height="300%" id="f1" width="300%" x="-1" y="-1"><feGaussianBlur result="blurOut" stdDeviation="2.0"/><feColorMatrix in="blurOut" result="blurOut2" type="matrix" values="0 0 0 0 0 0 0 0 0 0 0 0 0 0 0 0 0 0 .4 0"/><feOffset dx="4.0" dy="4.0" in="blurOut2" result="blurOut3"/><feBlend in="SourceGraphic" in2="blurOut3" mode="normal"/></filter></defs><g><text fill="#000000" font-family="sans-serif" font-size="18" lengthAdjust="spacingAndGlyphs" textLength="369" x="89" y="16.708">Overview of extended client functionality</text><text fill="#000000" font-family="sans-serif" font-size="18" lengthAdjust="spacingAndGlyphs" textLength="344" x="101.5" y="37.6611">(light blue have an expanded diagram)</text><rect fill="#FEFECE" filter="url(#f1)" height="52.5938" style="stroke: #A80036; stroke-width: 1.5;" width="270" x="220.005" y="50.4063"/><rect fill="#FEFECE" height="5" style="stroke: #A80036; stroke-width: 1.5;" width="10" x="215.005" y="55.4063"/><rect fill="#FEFECE" height="5" style="stroke: #A80036; stroke-width: 1.5;" width="10" x="215.005" y="93"/><text fill="#000000" font-family="sans-serif" font-size="14" lengthAdjust="spacingAndGlyphs" textLength="39" x="335.505" y="73.4014">Client</text><text fill="#000000" font-family="sans-serif" font-size="14" lengthAdjust="spacingAndGlyphs" textLength="250" x="230.005" y="89.6982">(Browser javascript/other http client)</text><rect fill="#FEFECE" filter="url(#f1)" height="36.2969" style="stroke: #A80036; stroke-width: 1.5;" width="99" x="262.755" y="257.9063"/><rect fill="#FEFECE" height="5" style="stroke: #A80036; stroke-width: 1.5;" width="10" x="257.755" y="262.9063"/><rect fill="#FEFECE" height="5" style="stroke: #A80036; stroke-width: 1.5;" width="10" x="257.755" y="284.2031"/><text fill="#000000" font-family="sans-serif" font-size="14" lengthAdjust="spacingAndGlyphs" textLength="79" x="272.755" y="280.9014">Wikispeech</text><a target="_top" xlink:href="textprocessing2.svg" xlink:title="textprocessing2.svg"><rect fill="#ADD8E6" filter="url(#f1)" height="36.2969" style="stroke: #A80036; stroke-width: 1.5;" width="127" x="348.755" y="546.9063"/><rect fill="#ADD8E6" height="5" style="stroke: #A80036; stroke-width: 1.5;" width="10" x="343.755" y="551.9063"/><rect fill="#ADD8E6" height="5" style="stroke: #A80036; stroke-width: 1.5;" width="10" x="343.755" y="573.2031"/><text fill="#000000" font-family="sans-serif" font-size="14" lengthAdjust="spacingAndGlyphs" textLength="107" x="358.755" y="569.9014">Textprocessing</text></a><a target="_top" xlink:href="Lexicon.svg" xlink:title="Lexicon.svg"><rect fill="#ADD8E6" filter="url(#f1)" height="36.2969" style="stroke: #A80036; stroke-width: 1.5;" width="72" x="434.005" y="739.9063"/><rect fill="#ADD8E6" height="5" style="stroke: #A80036; stroke-width: 1.5;" width="10" x="429.005" y="744.9063"/><rect fill="#ADD8E6" height="5" style="stroke: #A80036; stroke-width: 1.5;" width="10" x="429.005" y="766.2031"/><text fill="#000000" font-family="sans-serif" font-size="14" lengthAdjust="spacingAndGlyphs" textLength="52" x="444.005" y="762.9014">Lexicon</text></a><rect fill="#FEFECE" filter="url(#f1)" height="36.2969" style="stroke: #A80036; stroke-width: 1.5;" width="87" x="225.755" y="447.9063"/><rect fill="#FEFECE" height="5" style="stroke: #A80036; stroke-width: 1.5;" width="10" x="220.755" y="452.9063"/><rect fill="#FEFECE" height="5" style="stroke: #A80036; stroke-width: 1.5;" width="10" x="220.755" y="474.2031"/><text fill="#000000" font-family="sans-serif" font-size="14" lengthAdjust="spacingAndGlyphs" textLength="67" x="235.755" y="470.9014">Synthesis</text><a target="_top" xlink:href="WikispeechApi.svg" xlink:title="WikispeechApi.svg"><ellipse cx="355.005" cy="172.9063" fill="#ADD8E6" filter="url(#f1)" rx="8" ry="8" style="stroke: #A80036; stroke-width: 2.0;"/><text fill="#000000" font-family="sans-serif" font-size="14" lengthAdjust="spacingAndGlyphs" textLength="100" x="305.005" y="194.9014">WikispeechApi</text></a><polygon fill="#FBFB77" filter="url(#f1)" points="66.7546,168.4063,66.7546,193.5391,269.7546,193.5391,269.7546,178.4063,259.7546,168.4063,66.7546,168.4063" style="stroke: #A80036; stroke-width: 1.0;"/><polygon fill="#FBFB77" points="66.7546,168.4063,66.7546,193.5391,269.7546,193.5391,269.7546,186.4063,304.928,180.9063,269.7546,178.4063,269.7546,178.4063,259.7546,168.4063,66.7546,168.4063" style="stroke: #A80036; stroke-width: 1.0;"/><line style="stroke: #A80036; stroke-width: 1.0;" x1="259.7546" x2="259.7546" y1="168.4063" y2="178.4063"/><line style="stroke: #A80036; stroke-width: 1.0;" x1="269.7546" x2="259.7546" y1="178.4063" y2="178.4063"/><text fill="#000000" font-family="sans-serif" font-size="13" lengthAdjust="spacingAndGlyphs" textLength="119" x="72.7546" y="185.4731">Basic functionality:</text><a target="_top" xlink:href="basic.svg" xlink:title="basic.svg"><text fill="#0000FF" font-family="sans-serif" font-size="13" lengthAdjust="spacingAndGlyphs" text-decoration="underline" textLength="59" x="195.7546" y="185.4731">basic.svg</text><line style="stroke: #0000FF; stroke-width: 1.0;" x1="195.7546" x2="254.7546" y1="187.4731" y2="187.4731"/></a><ellipse cx="412.005" cy="457.9063" fill="#FEFECE" filter="url(#f1)" rx="8" ry="8" style="stroke: #A80036; stroke-width: 2.0;"/><text fill="#000000" font-family="sans-serif" font-size="14" lengthAdjust="spacingAndGlyphs" textLength="128" x="348.005" y="479.9014">TextprocessingApi</text><ellipse cx="470.255" cy="654.9063" fill="#FEFECE" filter="url(#f1)" rx="8" ry="8" style="stroke: #A80036; stroke-width: 2.0;"/><text fill="#000000" font-family="sans-serif" font-size="14" lengthAdjust="spacingAndGlyphs" textLength="73" x="433.755" y="676.9014">LexiconApi</text><ellipse cx="269.505" cy="362.9063" fill="#FEFECE" filter="url(#f1)" rx="8" ry="8" style="stroke: #A80036; stroke-width: 2.0;"/><text fill="#000000" font-family="sans-serif" font-size="14" lengthAdjust="spacingAndGlyphs" textLength="88" x="225.505" y="384.9014">SynthesisApi</text><ellipse cx="144.0046" cy="457.9063" fill="#FEFECE" filter="url(#f1)" rx="8" ry="8" style="stroke: #A80036; stroke-width: 2.0;"/><text fill="#000000" font-family="sans-serif" font-size="14" lengthAdjust="spacingAndGlyphs" textLength="92" x="98.0046" y="479.9014">RecordingApi</text><path d="M94.7546,554.4063 C94.7546,544.4063 144.2546,544.4063 144.2546,544.4063 C144.2546,544.4063 193.7546,544.4063 193.7546,554.4063 L193.7546,575.7031 C193.7546,585.7031 144.2546,585.7031 144.2546,585.7031 C144.2546,585.7031 94.7546,585.7031 94.7546,575.7031 L94.7546,554.4063 " fill="#FEFECE" filter="url(#f1)" style="stroke: #000000; stroke-width: 1.5;"/><path d="M94.7546,554.4063 C94.7546,564.4063 144.2546,564.4063 144.2546,564.4063 C144.2546,564.4063 193.7546,564.4063 193.7546,554.4063 " fill="none" style="stroke: #000000; stroke-width: 1.5;"/><text fill="#000000" font-family="sans-serif" font-size="14" lengthAdjust="spacingAndGlyphs" textLength="79" x="104.7546" y="577.4014">Recordings</text><path d="M355.005,109.1073 C355.005,125.1783 355.005,144.3552 355.005,158.6943 " fill="none" style="stroke: #A80036; stroke-width: 1.0;"/><polygon fill="#A80036" points="355.005,163.7442,359.005,154.7442,355.005,158.7442,351.005,154.7442,355.005,163.7442" style="stroke: #A80036; stroke-width: 1.0;"/><polygon fill="#A80036" points="355.005,103.6453,351.005,112.6453,355.005,108.6453,359.005,112.6453,355.005,103.6453" style="stroke: #A80036; stroke-width: 1.0;"/><path d="M347.515,198.1052 C339.815,214.7592 327.869,240.5963 319.992,257.6313 " fill="none" style="stroke: #A80036; stroke-width: 1.0;"/><path d="M323.416,298.3603 C342.806,334.8133 381.934,408.3743 401.026,444.2673 " fill="none" style="stroke: #A80036; stroke-width: 1.0;"/><polygon fill="#A80036" points="403.473,448.8663,402.777,439.042,401.1245,444.4521,395.7144,442.7996,403.473,448.8663" style="stroke: #A80036; stroke-width: 1.0;"/><polygon fill="#A80036" points="321.055,293.9213,321.751,303.7455,323.4035,298.3354,328.8136,299.9879,321.055,293.9213" style="stroke: #A80036; stroke-width: 1.0;"/><path d="M412.005,482.9243 C412.005,500.5733 412.005,528.8453 412.005,546.8853 " fill="none" style="stroke: #A80036; stroke-width: 1.0;"/><path d="M301.993,298.5593 C294.965,313.7593 285.618,333.9743 278.669,349.0053 " fill="none" style="stroke: #A80036; stroke-width: 1.0;"/><polygon fill="#A80036" points="276.41,353.8893,283.8179,347.399,278.5085,349.3509,276.5566,344.0415,276.41,353.8893" style="stroke: #A80036; stroke-width: 1.0;"/><polygon fill="#A80036" points="304.118,293.9643,296.7118,300.4564,302.0207,298.5031,303.974,303.8121,304.118,293.9643" style="stroke: #A80036; stroke-width: 1.0;"/><path d="M269.005,388.1053 C269.005,404.7593 269.005,430.5963 269.005,447.6313 " fill="none" style="stroke: #A80036; stroke-width: 1.0;"/><path d="M277.861,296.6813 C255.771,310.6613 227.431,330.9493 207.005,353.9063 C182.39,381.5703 163.065,420.4173 152.613,444.0583 " fill="none" style="stroke: #A80036; stroke-width: 1.0;"/><polygon fill="#A80036" points="150.519,448.8633,157.7832,442.2125,152.5177,444.2801,150.4501,439.0146,150.519,448.8633" style="stroke: #A80036; stroke-width: 1.0;"/><polygon fill="#A80036" points="282.191,293.9703,272.4404,295.3583,277.9537,296.6246,276.6874,302.1379,282.191,293.9703" style="stroke: #A80036; stroke-width: 1.0;"/><path d="M144.005,482.9243 C144.005,499.7123 144.005,526.1123 144.005,544.1743 " fill="none" style="stroke: #A80036; stroke-width: 1.0;"/><path d="M424.997,587.4103 C434.775,603.5963 448.09,625.6343 457.698,641.5373 " fill="none" style="stroke: #A80036; stroke-width: 1.0;"/><polygon fill="#A80036" points="460.304,645.8503,459.0738,636.0785,457.7185,641.5706,452.2264,640.2153,460.304,645.8503" style="stroke: #A80036; stroke-width: 1.0;"/><polygon fill="#A80036" points="422.374,583.0693,423.6056,592.8408,424.9601,587.3485,430.4524,588.703,422.374,583.0693" style="stroke: #A80036; stroke-width: 1.0;"/><path d="M470.005,680.1057 C470.005,696.7588 470.005,722.5958 470.005,739.6317 " fill="none" style="stroke: #A80036; stroke-width: 1.0;"/><path d="M405.459,106.4262 C456.839,139.6382 529.005,199.6753 529.005,274.9063 C529.005,274.9063 529.005,274.9063 529.005,466.9063 C529.005,532.6443 497.906,605.7123 480.865,640.8173 " fill="none" style="stroke: #A80036; stroke-width: 1.0; stroke-dasharray: 7.0,7.0;"/><polygon fill="#A80036" points="478.458,645.7153,486.0173,639.402,480.6632,641.2278,478.8373,635.8737,478.458,645.7153" style="stroke: #A80036; stroke-width: 1.0;"/><polygon fill="#A80036" points="401.177,103.6893,406.6059,111.9067,405.3899,106.3821,410.9145,105.1661,401.177,103.6893" style="stroke: #A80036; stroke-width: 1.0;"/><path d="M386.096,107.5222 C399.946,122.8623 414.748,142.7843 422.005,163.9063 C456.332,263.8233 430.24,393.5323 417.721,443.7563 " fill="none" style="stroke: #A80036; stroke-width: 1.0; stroke-dasharray: 7.0,7.0;"/><polygon fill="#A80036" points="416.482,448.6453,422.5706,440.9039,417.7105,443.7985,414.8159,438.9383,416.482,448.6453" style="stroke: #A80036; stroke-width: 1.0;"/><polygon fill="#A80036" points="382.601,103.7223,385.7509,113.0538,385.9863,107.4018,391.6383,107.6373,382.601,103.7223" style="stroke: #A80036; stroke-width: 1.0;"/><path d="M214.622,100.4852 C144.429,114.9383 69.9962,136.2023 49.0046,163.9063 C-11.1792,243.3362 139.955,318.5983 221.29,351.9303 " fill="none" style="stroke: #A80036; stroke-width: 1.0; stroke-dasharray: 7.0,7.0;"/><polygon fill="#A80036" points="226.065,353.8723,219.2341,346.7773,221.4331,351.9892,216.2212,354.1883,226.065,353.8723" style="stroke: #A80036; stroke-width: 1.0;"/><polygon fill="#A80036" points="219.668,99.4562,210.0498,97.3372,214.769,100.4563,211.6499,105.1756,219.668,99.4562" style="stroke: #A80036; stroke-width: 1.0;"/><path d="M214.692,97.4982 C137.034,111.5293 51.5472,133.3713 28.0046,163.9063 C-42.1488,254.8953 74.6358,393.3583 123.793,444.7703 " fill="none" style="stroke: #A80036; stroke-width: 1.0; stroke-dasharray: 7.0,7.0;"/><polygon fill="#A80036" points="127.493,448.6083,124.1271,439.3524,124.0231,445.0083,118.3672,444.9043,127.493,448.6083" style="stroke: #A80036; stroke-width: 1.0;"/><polygon fill="#A80036" points="219.796,96.5852,210.2324,94.2319,214.8741,97.4653,211.6406,102.107,219.796,96.5852" style="stroke: #A80036; stroke-width: 1.0;"/><path d="M247.231,388.1053 C224.288,405.1753 188.377,431.8933 165.528,448.8923 " fill="none" style="stroke: #A80036; stroke-width: 1.0; stroke-dasharray: 7.0,7.0;"/><path d="M293.913,388.1053 C320.16,405.1753 361.243,431.8933 387.381,448.8923 " fill="none" style="stroke: #A80036; stroke-width: 1.0; stroke-dasharray: 7.0,7.0;"/></g></svg>