<?xml version="1.0" encoding="UTF-8" standalone="yes"?><svg xmlns="http://www.w3.org/2000/svg" xmlns:xlink="http://www.w3.org/1999/xlink" height="768px" style="width:581px;height:768px;" version="1.1" viewBox="0 0 581 768" width="581px"><defs><filter height="300%" id="f1" width="300%" x="-1" y="-1"><feGaussianBlur result="blurOut" stdDeviation="2.0"/><feColorMatrix in="blurOut" result="blurOut2" type="matrix" values="0 0 0 0 0 0 0 0 0 0 0 0 0 0 0 0 0 0 .4 0"/><feOffset dx="4.0" dy="4.0" in="blurOut2" result="blurOut3"/><feBlend in="SourceGraphic" in2="blurOut3" mode="normal"/></filter></defs><g><text fill="#000000" font-family="sans-serif" font-size="20" font-weight="bold" lengthAdjust="spacingAndGlyphs" textLength="438" x="76" y="18.5645">Wikispeech: Basic interaction diagram</text><text fill="#000000" font-family="sans-serif" font-size="14" lengthAdjust="spacingAndGlyphs" textLength="96" x="247" y="36.2764">October 2018</text><text fill="#000000" font-family="sans-serif" font-size="18" lengthAdjust="spacingAndGlyphs" textLength="0" x="298" y="56.2861"/><rect fill="#FEFECE" filter="url(#f1)" height="52.5938" style="stroke: #A80036; stroke-width: 1.5;" width="270" x="44" y="68.5313"/><rect fill="#FEFECE" height="5" style="stroke: #A80036; stroke-width: 1.5;" width="10" x="39" y="73.5313"/><rect fill="#FEFECE" height="5" style="stroke: #A80036; stroke-width: 1.5;" width="10" x="39" y="111.125"/><text fill="#000000" font-family="sans-serif" font-size="14" lengthAdjust="spacingAndGlyphs" textLength="39" x="159.5" y="91.5264">Client</text><text fill="#000000" font-family="sans-serif" font-size="14" lengthAdjust="spacingAndGlyphs" textLength="250" x="54" y="107.8232">(Browser javascript/other http client)</text><rect fill="#FEFECE" filter="url(#f1)" height="36.2969" style="stroke: #A80036; stroke-width: 1.5;" width="116" x="121" y="308.5313"/><rect fill="#FEFECE" height="5" style="stroke: #A80036; stroke-width: 1.5;" width="10" x="116" y="313.5313"/><rect fill="#FEFECE" height="5" style="stroke: #A80036; stroke-width: 1.5;" width="10" x="116" y="334.8281"/><text fill="#000000" font-family="sans-serif" font-size="14" lengthAdjust="spacingAndGlyphs" textLength="96" x="131" y="331.5264">1. Wikispeech</text><a target="_top" xlink:href="textprocessing2.svg" xlink:title="textprocessing2.svg"><rect fill="#ADD8E6" filter="url(#f1)" height="36.2969" style="stroke: #A80036; stroke-width: 1.5;" width="144" x="6" y="531.5313"/><rect fill="#ADD8E6" height="5" style="stroke: #A80036; stroke-width: 1.5;" width="10" x="1" y="536.5313"/><rect fill="#ADD8E6" height="5" style="stroke: #A80036; stroke-width: 1.5;" width="10" x="1" y="557.8281"/><text fill="#000000" font-family="sans-serif" font-size="14" lengthAdjust="spacingAndGlyphs" textLength="124" x="16" y="554.5264">2. Textprocessing</text></a><a target="_top" xlink:href="Lexicon.svg" xlink:title="Lexicon.svg"><rect fill="#ADD8E6" filter="url(#f1)" height="36.2969" style="stroke: #A80036; stroke-width: 1.5;" width="89" x="33.5" y="723.5313"/><rect fill="#ADD8E6" height="5" style="stroke: #A80036; stroke-width: 1.5;" width="10" x="28.5" y="728.5313"/><rect fill="#ADD8E6" height="5" style="stroke: #A80036; stroke-width: 1.5;" width="10" x="28.5" y="749.8281"/><text fill="#000000" font-family="sans-serif" font-size="14" lengthAdjust="spacingAndGlyphs" textLength="69" x="43.5" y="746.5264">3. Lexicon</text></a><rect fill="#FEFECE" filter="url(#f1)" height="36.2969" style="stroke: #A80036; stroke-width: 1.5;" width="118" x="222" y="531.5313"/><rect fill="#FEFECE" height="5" style="stroke: #A80036; stroke-width: 1.5;" width="10" x="217" y="536.5313"/><rect fill="#FEFECE" height="5" style="stroke: #A80036; stroke-width: 1.5;" width="10" x="217" y="557.8281"/><text fill="#000000" font-family="sans-serif" font-size="14" lengthAdjust="spacingAndGlyphs" textLength="98" x="232" y="554.5264">4. TTSAdapter</text><a target="_top" xlink:href="WikispeechApi.svg" xlink:title="WikispeechApi.svg"><ellipse cx="179" cy="222.5313" fill="#ADD8E6" filter="url(#f1)" rx="8" ry="8" style="stroke: #A80036; stroke-width: 2.0;"/><text fill="#000000" font-family="sans-serif" font-size="14" lengthAdjust="spacingAndGlyphs" textLength="100" x="129" y="244.5264">WikispeechApi</text></a><ellipse cx="78" cy="445.5313" fill="#FEFECE" filter="url(#f1)" rx="8" ry="8" style="stroke: #A80036; stroke-width: 2.0;"/><text fill="#000000" font-family="sans-serif" font-size="14" lengthAdjust="spacingAndGlyphs" textLength="128" x="14" y="467.5264">TextprocessingApi</text><ellipse cx="78" cy="637.5313" fill="#FEFECE" filter="url(#f1)" rx="8" ry="8" style="stroke: #A80036; stroke-width: 2.0;"/><text fill="#000000" font-family="sans-serif" font-size="14" lengthAdjust="spacingAndGlyphs" textLength="73" x="41.5" y="659.5264">LexiconApi</text><ellipse cx="281" cy="445.5313" fill="#FEFECE" filter="url(#f1)" rx="8" ry="8" style="stroke: #A80036; stroke-width: 2.0;"/><text fill="#000000" font-family="sans-serif" font-size="14" lengthAdjust="spacingAndGlyphs" textLength="88" x="237" y="467.5264">SynthesisApi</text><ellipse cx="281" cy="637.5313" fill="#FEFECE" filter="url(#f1)" rx="8" ry="8" style="stroke: #A80036; stroke-width: 2.0;"/><text fill="#000000" font-family="sans-serif" font-size="14" lengthAdjust="spacingAndGlyphs" textLength="75" x="243.5" y="659.5264">TTSEngine</text><polygon fill="#FBFB77" filter="url(#f1)" points="388,633.0313,388,658.1641,572,658.1641,572,643.0313,562,633.0313,388,633.0313" style="stroke: #A80036; stroke-width: 1.0;"/><polygon fill="#FBFB77" points="388,633.0313,388,641.5313,318.7012,645.5313,388,649.5313,388,658.1641,572,658.1641,572,643.0313,562,633.0313,388,633.0313" style="stroke: #A80036; stroke-width: 1.0;"/><line style="stroke: #A80036; stroke-width: 1.0;" x1="562" x2="562" y1="633.0313" y2="643.0313"/><line style="stroke: #A80036; stroke-width: 1.0;" x1="572" x2="562" y1="643.0313" y2="643.0313"/><text fill="#000000" font-family="sans-serif" font-size="13" lengthAdjust="spacingAndGlyphs" textLength="163" x="394" y="650.0981">MaryTTS or other engines</text><path d="M179,121.8017 C179,148.9502 179,190.1613 179,213.2668 " fill="none" style="stroke: #A80036; stroke-width: 1.0;"/><text fill="#000000" font-family="sans-serif" font-size="13" lengthAdjust="spacingAndGlyphs" textLength="135" x="186.5" y="164.5981">Send text/html/textId</text><text fill="#000000" font-family="sans-serif" font-size="13" lengthAdjust="spacingAndGlyphs" textLength="148" x="180" y="179.731">Receive audio+markup</text><path d="M179,247.6941 C179,264.7366 179,290.7729 179,308.2095 " fill="none" style="stroke: #A80036; stroke-width: 1.0;"/><path d="M115.7991,342.2831 C99.7924,349.4286 84.47,359.7306 75,374.5313 C64.274,391.295 66.661,414.4131 70.7475,431.3091 " fill="none" style="stroke: #A80036; stroke-width: 1.0;"/><polygon fill="#A80036" points="72.0577,436.339,73.6598,426.6213,70.7973,431.5004,65.9181,428.6379,72.0577,436.339" style="stroke: #A80036; stroke-width: 1.0;"/><polygon fill="#A80036" points="120.7829,340.1654,110.9354,340.0036,116.1811,342.1207,114.064,347.3665,120.7829,340.1654" style="stroke: #A80036; stroke-width: 1.0;"/><text fill="#000000" font-family="sans-serif" font-size="13" lengthAdjust="spacingAndGlyphs" textLength="95" x="109" y="387.5981">Send text/html</text><text fill="#000000" font-family="sans-serif" font-size="13" lengthAdjust="spacingAndGlyphs" textLength="161" x="76" y="402.731">Receive linguistic markup</text><path d="M212.4436,347.5618 C222.798,355.1736 233.6635,364.413 242,374.5313 C256.1028,391.6484 266.7416,414.7195 273.3161,431.5084 " fill="none" style="stroke: #A80036; stroke-width: 1.0;"/><polygon fill="#A80036" points="275.2253,436.5035,275.7482,426.6685,273.4401,431.833,268.2755,429.5249,275.2253,436.5035" style="stroke: #A80036; stroke-width: 1.0;"/><polygon fill="#A80036" points="208.3543,344.6183,213.3221,353.1224,212.4124,347.5392,217.9956,346.6295,208.3543,344.6183" style="stroke: #A80036; stroke-width: 1.0;"/><text fill="#000000" font-family="sans-serif" font-size="13" lengthAdjust="spacingAndGlyphs" textLength="145" x="289.5" y="387.5981">Send linguistic markup</text><text fill="#000000" font-family="sans-serif" font-size="13" lengthAdjust="spacingAndGlyphs" textLength="198" x="263" y="402.731">Receive audio+speech markup</text><path d="M281,470.6942 C281,487.7366 281,513.7729 281,531.2095 " fill="none" style="stroke: #A80036; stroke-width: 1.0;"/><path d="M281,567.5882 C281,585.0773 281,611.3967 281,628.5222 " fill="none" style="stroke: #A80036; stroke-width: 1.0;"/><path d="M78,470.6942 C78,487.7366 78,513.7729 78,531.2095 " fill="none" style="stroke: #A80036; stroke-width: 1.0;"/><path d="M78,572.725 C78,588.0495 78,608.0256 78,623.1763 " fill="none" style="stroke: #A80036; stroke-width: 1.0;"/><polygon fill="#A80036" points="78,628.5222,82,619.5222,78,623.5222,74,619.5222,78,628.5222" style="stroke: #A80036; stroke-width: 1.0;"/><polygon fill="#A80036" points="78,567.5882,74,576.5882,78,572.5882,82,576.5882,78,567.5882" style="stroke: #A80036; stroke-width: 1.0;"/><path d="M78,662.6942 C78,679.7366 78,705.7729 78,723.2095 " fill="none" style="stroke: #A80036; stroke-width: 1.0;"/></g></svg>