<?xml version="1.0" encoding="UTF-8" standalone="yes"?><svg xmlns="http://www.w3.org/2000/svg" xmlns:xlink="http://www.w3.org/1999/xlink" height="530px" style="width:463px;height:530px;" version="1.1" viewBox="0 0 463 530" width="463px"><defs><filter height="300%" id="f1" width="300%" x="-1" y="-1"><feGaussianBlur result="blurOut" stdDeviation="2.0"/><feColorMatrix in="blurOut" result="blurOut2" type="matrix" values="0 0 0 0 0 0 0 0 0 0 0 0 0 0 0 0 0 0 .4 0"/><feOffset dx="4.0" dy="4.0" in="blurOut2" result="blurOut3"/><feBlend in="SourceGraphic" in2="blurOut3" mode="normal"/></filter></defs><g><ellipse cx="296.5" cy="17" fill="#FEFECE" filter="url(#f1)" rx="8" ry="8" style="stroke: #A80036; stroke-width: 2.0;"/><text fill="#000000" font-family="sans-serif" font-size="14" lengthAdjust="spacingAndGlyphs" textLength="73" x="260" y="38.9951">LexiconApi</text><ellipse cx="72.5" cy="207" fill="#FEFECE" filter="url(#f1)" rx="8" ry="8" style="stroke: #A80036; stroke-width: 2.0;"/><text fill="#000000" font-family="sans-serif" font-size="14" lengthAdjust="spacingAndGlyphs" textLength="133" x="6" y="228.9951">GraphemeRulesApi</text><ellipse cx="227.75" cy="207" fill="#FEFECE" filter="url(#f1)" rx="8" ry="8" style="stroke: #A80036; stroke-width: 2.0;"/><text fill="#000000" font-family="sans-serif" font-size="14" lengthAdjust="spacingAndGlyphs" textLength="106" x="174.75" y="228.9951">CompoundsApi</text><ellipse cx="366.75" cy="207" fill="#FEFECE" filter="url(#f1)" rx="8" ry="8" style="stroke: #A80036; stroke-width: 2.0;"/><text fill="#000000" font-family="sans-serif" font-size="14" lengthAdjust="spacingAndGlyphs" textLength="102" x="315.75" y="228.9951">MorphologyApi</text><rect fill="#FEFECE" filter="url(#f1)" height="36.2969" style="stroke: #A80036; stroke-width: 1.5;" width="72" x="260.25" y="102"/><rect fill="#FEFECE" height="5" style="stroke: #A80036; stroke-width: 1.5;" width="10" x="255.25" y="107"/><rect fill="#FEFECE" height="5" style="stroke: #A80036; stroke-width: 1.5;" width="10" x="255.25" y="128.2969"/><text fill="#000000" font-family="sans-serif" font-size="14" lengthAdjust="spacingAndGlyphs" textLength="52" x="270.25" y="124.9951">Lexicon</text><rect fill="#FEFECE" filter="url(#f1)" height="36.2969" style="stroke: #A80036; stroke-width: 1.5;" width="132" x="6.25" y="292"/><rect fill="#FEFECE" height="5" style="stroke: #A80036; stroke-width: 1.5;" width="10" x="1.25" y="297"/><rect fill="#FEFECE" height="5" style="stroke: #A80036; stroke-width: 1.5;" width="10" x="1.25" y="318.2969"/><text fill="#000000" font-family="sans-serif" font-size="14" lengthAdjust="spacingAndGlyphs" textLength="112" x="16.25" y="314.9951">GraphemeRules</text><rect fill="#FEFECE" filter="url(#f1)" height="36.2969" style="stroke: #A80036; stroke-width: 1.5;" width="105" x="176" y="292"/><rect fill="#FEFECE" height="5" style="stroke: #A80036; stroke-width: 1.5;" width="10" x="171" y="297"/><rect fill="#FEFECE" height="5" style="stroke: #A80036; stroke-width: 1.5;" width="10" x="171" y="318.2969"/><text fill="#000000" font-family="sans-serif" font-size="14" lengthAdjust="spacingAndGlyphs" textLength="85" x="186" y="314.9951">Compounds</text><rect fill="#FEFECE" filter="url(#f1)" height="36.2969" style="stroke: #A80036; stroke-width: 1.5;" width="101" x="316" y="292"/><rect fill="#FEFECE" height="5" style="stroke: #A80036; stroke-width: 1.5;" width="10" x="311" y="297"/><rect fill="#FEFECE" height="5" style="stroke: #A80036; stroke-width: 1.5;" width="10" x="311" y="318.2969"/><text fill="#000000" font-family="sans-serif" font-size="14" lengthAdjust="spacingAndGlyphs" textLength="81" x="326" y="314.9951">Morphology</text><path d="M320,492.5 C320,482.5 366.5,482.5 366.5,482.5 C366.5,482.5 413,482.5 413,492.5 L413,513.7969 C413,523.7969 366.5,523.7969 366.5,523.7969 C366.5,523.7969 320,523.7969 320,513.7969 L320,492.5 " fill="#FEFECE" filter="url(#f1)" style="stroke: #000000; stroke-width: 1.5;"/><path d="M320,492.5 C320,502.5 366.5,502.5 366.5,502.5 C366.5,502.5 413,502.5 413,492.5 " fill="none" style="stroke: #000000; stroke-width: 1.5;"/><text fill="#000000" font-family="sans-serif" font-size="14" lengthAdjust="spacingAndGlyphs" textLength="73" x="330" y="515.4951">LexiconDB</text><ellipse cx="366.25" cy="397" fill="#FEFECE" filter="url(#f1)" rx="8" ry="8" style="stroke: #A80036; stroke-width: 2.0;"/><text fill="#000000" font-family="sans-serif" font-size="14" lengthAdjust="spacingAndGlyphs" textLength="94" x="319.25" y="418.9951">LexiconDBApi</text><path d="M296.25,42.199 C296.25,58.853 296.25,84.69 296.25,101.725 " fill="none" style="stroke: #A80036; stroke-width: 1.0;"/><path d="M337.576,131.819 C369.937,142.706 412.782,163.017 433.25,198 C462.428,247.869 453.672,273.952 433.25,328 C424.767,350.45 406.295,370.557 390.891,384.443 " fill="none" style="stroke: #A80036; stroke-width: 1.0;"/><polygon fill="#A80036" points="387.049,387.836,396.4424,384.8755,390.7964,384.5258,391.1461,378.8798,387.049,387.836" style="stroke: #A80036; stroke-width: 1.0;"/><polygon fill="#A80036" points="332.478,130.152,339.7889,136.7513,337.2303,131.7061,342.2755,129.1475,332.478,130.152" style="stroke: #A80036; stroke-width: 1.0;"/><path d="M280.506,142.221 C269.007,157.718 253.516,178.598 242.206,193.842 " fill="none" style="stroke: #A80036; stroke-width: 1.0;"/><polygon fill="#A80036" points="239.134,197.983,247.7084,193.1374,242.1127,193.9671,241.2829,188.3714,239.134,197.983" style="stroke: #A80036; stroke-width: 1.0;"/><polygon fill="#A80036" points="283.594,138.058,275.0177,142.9002,280.6137,142.0727,281.4412,147.6687,283.594,138.058" style="stroke: #A80036; stroke-width: 1.0;"/><path d="M312.222,142.221 C323.887,157.718 339.604,178.598 351.077,193.842 " fill="none" style="stroke: #A80036; stroke-width: 1.0;"/><polygon fill="#A80036" points="354.194,197.983,351.9764,188.387,351.1867,193.9885,345.5852,193.1987,354.194,197.983" style="stroke: #A80036; stroke-width: 1.0;"/><polygon fill="#A80036" points="309.089,138.058,311.3066,147.654,312.0963,142.0525,317.6978,142.8423,309.089,138.058" style="stroke: #A80036; stroke-width: 1.0;"/><path d="M255.106,138.082 C215.588,154.489 156.099,179.188 115.796,195.921 " fill="none" style="stroke: #A80036; stroke-width: 1.0;"/><polygon fill="#A80036" points="110.978,197.921,120.8238,198.165,115.596,196.0041,117.7568,190.7762,110.978,197.921" style="stroke: #A80036; stroke-width: 1.0;"/><polygon fill="#A80036" points="259.762,136.149,249.9162,135.905,255.144,138.0659,252.9832,143.2938,259.762,136.149" style="stroke: #A80036; stroke-width: 1.0;"/><path d="M366.25,422.285 C366.25,438.8684 366.25,464.5932 366.25,482.3105 " fill="none" style="stroke: #A80036; stroke-width: 1.0;"/><path d="M227.424,232.199 C227.603,248.853 227.881,274.69 228.064,291.725 " fill="none" style="stroke: #A80036; stroke-width: 1.0;"/><path d="M366.25,232.199 C366.25,248.853 366.25,274.69 366.25,291.725 " fill="none" style="stroke: #A80036; stroke-width: 1.0;"/><path d="M72.25,232.199 C72.25,248.853 72.25,274.69 72.25,291.725 " fill="none" style="stroke: #A80036; stroke-width: 1.0;"/><path d="M257.839,330.94 C281.643,346.982 314.862,369.369 338.237,385.122 " fill="none" style="stroke: #A80036; stroke-width: 1.0;"/><polygon fill="#A80036" points="342.483,387.983,337.2543,379.6367,338.3364,385.1891,332.784,386.2712,342.483,387.983" style="stroke: #A80036; stroke-width: 1.0;"/><polygon fill="#A80036" points="253.561,328.058,258.7884,336.4051,257.7071,330.8526,263.2597,329.7713,253.561,328.058" style="stroke: #A80036; stroke-width: 1.0;"/><path d="M366.25,333.088 C366.25,348.12 366.25,367.903 366.25,382.753 " fill="none" style="stroke: #A80036; stroke-width: 1.0;"/><polygon fill="#A80036" points="366.25,387.983,370.25,378.983,366.25,382.983,362.25,378.983,366.25,387.983" style="stroke: #A80036; stroke-width: 1.0;"/><polygon fill="#A80036" points="366.25,328.058,362.25,337.058,366.25,333.058,370.25,337.058,366.25,328.058" style="stroke: #A80036; stroke-width: 1.0;"/></g></svg>