<?xml version="1.0" encoding="UTF-8" standalone="yes"?><svg xmlns="http://www.w3.org/2000/svg" xmlns:xlink="http://www.w3.org/1999/xlink" height="967px" style="width:1197px;height:967px;" version="1.1" viewBox="0 0 1197 967" width="1197px"><defs><filter height="300%" id="f1" width="300%" x="-1" y="-1"><feGaussianBlur result="blurOut" stdDeviation="2.0"/><feColorMatrix in="blurOut" result="blurOut2" type="matrix" values="0 0 0 0 0 0 0 0 0 0 0 0 0 0 0 0 0 0 .4 0"/><feOffset dx="4.0" dy="4.0" in="blurOut2" result="blurOut3"/><feBlend in="SourceGraphic" in2="blurOut3" mode="normal"/></filter></defs><g><text fill="#000000" font-family="sans-serif" font-size="18" lengthAdjust="spacingAndGlyphs" textLength="152" x="527.25" y="16.708">Lexicon database</text><rect fill="#FEFECE" filter="url(#f1)" height="101.5469" style="stroke: #A80036; stroke-width: 1.5;" width="162" x="384.25" y="60.9531"/><ellipse cx="422.2" cy="76.9531" fill="#FFFFFF" rx="11" ry="11" style="stroke: #A80036; stroke-width: 1.0;"/><path d="M423.0438,83.7031 L420.5906,83.7031 L420.5906,73.4531 L417.45,73.4531 L417.45,71.3125 L426.1844,71.3125 L426.1844,73.4531 L423.0438,73.4531 L423.0438,83.7031 Z "/><text fill="#000000" font-family="sans-serif" font-size="12" lengthAdjust="spacingAndGlyphs" textLength="79" x="441.3" y="81.1074">SurfaceForm</text><line style="stroke: #A80036; stroke-width: 1.5;" x1="385.25" x2="545.25" y1="92.9531" y2="92.9531"/><text fill="#000000" font-family="sans-serif" font-size="11" lengthAdjust="spacingAndGlyphs" textLength="150" x="390.25" y="107.1636">Non-normalised text token</text><text fill="#000000" font-family="sans-serif" font-size="11" lengthAdjust="spacingAndGlyphs" textLength="123" x="390.25" y="135.1011">string unique indexed</text><text fill="#000000" font-family="sans-serif" font-size="11" lengthAdjust="spacingAndGlyphs" textLength="57" x="390.25" y="147.9058">fk: entryId</text><line style="stroke: #A80036; stroke-width: 1.5;" x1="385.25" x2="545.25" y1="154.5" y2="154.5"/><polygon fill="#FBFB77" filter="url(#f1)" points="582,99.4531,582,124.5859,839,124.5859,839,109.4531,829,99.4531,582,99.4531" style="stroke: #A80036; stroke-width: 1.0;"/><polygon fill="#FBFB77" points="582,99.4531,582,107.9531,546.598,111.9531,582,115.9531,582,124.5859,839,124.5859,839,109.4531,829,99.4531,582,99.4531" style="stroke: #A80036; stroke-width: 1.0;"/><line style="stroke: #A80036; stroke-width: 1.0;" x1="829" x2="829" y1="99.4531" y2="109.4531"/><line style="stroke: #A80036; stroke-width: 1.0;" x1="839" x2="829" y1="109.4531" y2="109.4531"/><text fill="#000000" font-family="sans-serif" font-size="13" lengthAdjust="spacingAndGlyphs" textLength="236" x="588" y="116.52">Association table SurfaceForm2Entry</text><rect fill="#FEFECE" filter="url(#f1)" height="165.5703" style="stroke: #A80036; stroke-width: 1.5;" width="207" x="362" y="254.9531"/><ellipse cx="445.25" cy="270.9531" fill="#FFFFFF" rx="11" ry="11" style="stroke: #A80036; stroke-width: 1.0;"/><path d="M446.0938,277.7031 L443.6406,277.7031 L443.6406,267.4531 L440.5,267.4531 L440.5,265.3125 L449.2344,265.3125 L449.2344,267.4531 L446.0938,267.4531 L446.0938,277.7031 Z "/><text fill="#000000" font-family="sans-serif" font-size="12" lengthAdjust="spacingAndGlyphs" textLength="32" x="465.75" y="275.1074">Entry</text><line style="stroke: #A80036; stroke-width: 1.5;" x1="363" x2="568" y1="286.9531" y2="286.9531"/><text fill="#000000" font-family="sans-serif" font-size="11" lengthAdjust="spacingAndGlyphs" textLength="75" x="368" y="301.1636">Lexikon entry</text><text fill="#000000" font-family="sans-serif" font-size="11" lengthAdjust="spacingAndGlyphs" textLength="81" x="368" y="329.1011">string indexed</text><text fill="#000000" font-family="sans-serif" font-size="11" lengthAdjust="spacingAndGlyphs" textLength="126" x="368" y="341.9058">fk: normalisedTokenId</text><text fill="#000000" font-family="sans-serif" font-size="11" lengthAdjust="spacingAndGlyphs" textLength="64" x="368" y="354.7104">word_parts</text><text fill="#000000" font-family="sans-serif" font-size="11" lengthAdjust="spacingAndGlyphs" textLength="52" x="368" y="367.5151">language</text><text fill="#000000" font-family="sans-serif" font-size="11" lengthAdjust="spacingAndGlyphs" textLength="83" x="368" y="380.3198">part-of-speech</text><text fill="#000000" font-family="sans-serif" font-size="11" lengthAdjust="spacingAndGlyphs" textLength="27" x="368" y="393.1245">label</text><text fill="#000000" font-family="sans-serif" font-size="11" lengthAdjust="spacingAndGlyphs" textLength="195" x="368" y="405.9292">composite index: string+language</text><line style="stroke: #A80036; stroke-width: 1.5;" x1="363" x2="568" y1="412.5234" y2="412.5234"/><rect fill="#FEFECE" filter="url(#f1)" height="124.8281" style="stroke: #A80036; stroke-width: 1.5;" width="173" x="6" y="495.4531"/><ellipse cx="60.25" cy="511.4531" fill="#FFFFFF" rx="11" ry="11" style="stroke: #A80036; stroke-width: 1.0;"/><path d="M61.0938,518.2031 L58.6406,518.2031 L58.6406,507.9531 L55.5,507.9531 L55.5,505.8125 L64.2344,505.8125 L64.2344,507.9531 L61.0938,507.9531 L61.0938,518.2031 Z "/><text fill="#000000" font-family="sans-serif" font-size="12" lengthAdjust="spacingAndGlyphs" textLength="56" x="80.75" y="515.6074">AudioFile</text><line style="stroke: #A80036; stroke-width: 1.5;" x1="7" x2="178" y1="527.4531" y2="527.4531"/><text fill="#000000" font-family="sans-serif" font-size="11" lengthAdjust="spacingAndGlyphs" textLength="111" x="12" y="541.6636">Recording of user's</text><text fill="#000000" font-family="sans-serif" font-size="11" lengthAdjust="spacingAndGlyphs" textLength="125" x="12" y="554.4683">pronunciation of entry</text><line style="stroke: #A80036; stroke-width: 1.0;" x1="7" x2="178" y1="561.0625" y2="561.0625"/><line style="stroke: #A80036; stroke-width: 1.0;" x1="7" x2="178" y1="563.0625" y2="563.0625"/><text fill="#000000" font-family="sans-serif" font-size="11" lengthAdjust="spacingAndGlyphs" textLength="42" x="12" y="575.2729">user_id</text><text fill="#000000" font-family="sans-serif" font-size="11" lengthAdjust="spacingAndGlyphs" textLength="0" x="16" y="588.0776"/><text fill="#000000" font-family="sans-serif" font-size="11" lengthAdjust="spacingAndGlyphs" textLength="0" x="16" y="600.8823"/><text fill="#000000" font-family="sans-serif" font-size="11" lengthAdjust="spacingAndGlyphs" textLength="161" x="12" y="613.687">Binary data or pointer to file</text><rect fill="#FEFECE" filter="url(#f1)" height="101.5469" style="stroke: #A80036; stroke-width: 1.5;" width="135" x="214" y="506.9531"/><ellipse cx="255.55" cy="522.9531" fill="#FFFFFF" rx="11" ry="11" style="stroke: #A80036; stroke-width: 1.0;"/><path d="M256.3938,529.7031 L253.9406,529.7031 L253.9406,519.4531 L250.8,519.4531 L250.8,517.3125 L259.5344,517.3125 L259.5344,519.4531 L256.3938,519.4531 L256.3938,529.7031 Z "/><text fill="#000000" font-family="sans-serif" font-size="12" lengthAdjust="spacingAndGlyphs" textLength="44" x="275.45" y="527.1074">Lemma</text><line style="stroke: #A80036; stroke-width: 1.5;" x1="215" x2="348" y1="538.9531" y2="538.9531"/><text fill="#000000" font-family="sans-serif" font-size="11" lengthAdjust="spacingAndGlyphs" textLength="73" x="220" y="553.1636">Lemma form</text><text fill="#000000" font-family="sans-serif" font-size="11" lengthAdjust="spacingAndGlyphs" textLength="123" x="220" y="581.1011">string unique indexed</text><text fill="#000000" font-family="sans-serif" font-size="11" lengthAdjust="spacingAndGlyphs" textLength="64" x="220" y="593.9058">word_parts</text><line style="stroke: #A80036; stroke-width: 1.5;" x1="215" x2="348" y1="600.5" y2="600.5"/><rect fill="#FEFECE" filter="url(#f1)" height="101.5469" style="stroke: #A80036; stroke-width: 1.5;" width="150" x="398.75" y="856.9531"/><ellipse cx="451" cy="872.9531" fill="#FFFFFF" rx="11" ry="11" style="stroke: #A80036; stroke-width: 1.0;"/><path d="M451.8438,879.7031 L449.3906,879.7031 L449.3906,869.4531 L446.25,869.4531 L446.25,867.3125 L454.9844,867.3125 L454.9844,869.4531 L451.8438,869.4531 L451.8438,879.7031 Z "/><text fill="#000000" font-family="sans-serif" font-size="12" lengthAdjust="spacingAndGlyphs" textLength="37" x="471.5" y="877.1074">Editor</text><line style="stroke: #A80036; stroke-width: 1.5;" x1="399.75" x2="547.75" y1="888.9531" y2="888.9531"/><text fill="#000000" font-family="sans-serif" font-size="11" lengthAdjust="spacingAndGlyphs" textLength="138" x="404.75" y="903.1636">Identifies who and when</text><text fill="#000000" font-family="sans-serif" font-size="11" lengthAdjust="spacingAndGlyphs" textLength="49" x="404.75" y="931.1011">editor_id</text><text fill="#000000" font-family="sans-serif" font-size="11" lengthAdjust="spacingAndGlyphs" textLength="61" x="404.75" y="943.9058">timestamp</text><line style="stroke: #A80036; stroke-width: 1.5;" x1="399.75" x2="547.75" y1="950.5" y2="950.5"/><rect fill="#FEFECE" filter="url(#f1)" height="101.5469" style="stroke: #A80036; stroke-width: 1.5;" width="119" x="692" y="694.9531"/><ellipse cx="719.6" cy="710.9531" fill="#FFFFFF" rx="11" ry="11" style="stroke: #A80036; stroke-width: 1.0;"/><path d="M720.4438,717.7031 L717.9906,717.7031 L717.9906,707.4531 L714.85,707.4531 L714.85,705.3125 L723.5844,705.3125 L723.5844,707.4531 L720.4438,707.4531 L720.4438,717.7031 Z "/><text fill="#000000" font-family="sans-serif" font-size="12" lengthAdjust="spacingAndGlyphs" textLength="59" x="736.4" y="715.1074">Comment</text><line style="stroke: #A80036; stroke-width: 1.5;" x1="693" x2="810" y1="726.9531" y2="726.9531"/><text fill="#000000" font-family="sans-serif" font-size="11" lengthAdjust="spacingAndGlyphs" textLength="107" x="698" y="741.1636">Free text comment</text><text fill="#000000" font-family="sans-serif" font-size="11" lengthAdjust="spacingAndGlyphs" textLength="21" x="698" y="769.1011">text</text><text fill="#000000" font-family="sans-serif" font-size="11" lengthAdjust="spacingAndGlyphs" textLength="61" x="698" y="781.9058">timestamp</text><line style="stroke: #A80036; stroke-width: 1.5;" x1="693" x2="810" y1="788.5" y2="788.5"/><rect fill="#FEFECE" filter="url(#f1)" height="101.5469" style="stroke: #A80036; stroke-width: 1.5;" width="181" x="661" y="856.9531"/><ellipse cx="703.45" cy="872.9531" fill="#FFFFFF" rx="11" ry="11" style="stroke: #A80036; stroke-width: 1.0;"/><path d="M704.2938,879.7031 L701.8406,879.7031 L701.8406,869.4531 L698.7,869.4531 L698.7,867.3125 L707.4344,867.3125 L707.4344,869.4531 L704.2938,869.4531 L704.2938,879.7031 Z "/><text fill="#000000" font-family="sans-serif" font-size="12" lengthAdjust="spacingAndGlyphs" textLength="88" x="723.55" y="877.1074">CommentType</text><line style="stroke: #A80036; stroke-width: 1.5;" x1="662" x2="841" y1="888.9531" y2="888.9531"/><text fill="#000000" font-family="sans-serif" font-size="11" lengthAdjust="spacingAndGlyphs" textLength="169" x="667" y="903.1636">Names of types of comments</text><text fill="#000000" font-family="sans-serif" font-size="11" lengthAdjust="spacingAndGlyphs" textLength="126" x="667" y="931.1011">problematic | variant |</text><text fill="#000000" font-family="sans-serif" font-size="11" lengthAdjust="spacingAndGlyphs" textLength="60" x="667" y="943.9058">invalid | ...</text><line style="stroke: #A80036; stroke-width: 1.5;" x1="662" x2="841" y1="950.5" y2="950.5"/><rect fill="#FEFECE" filter="url(#f1)" height="139.9609" style="stroke: #A80036; stroke-width: 1.5;" width="158" x="636.75" y="487.9531"/><ellipse cx="681" cy="503.9531" fill="#FFFFFF" rx="11" ry="11" style="stroke: #A80036; stroke-width: 1.0;"/><path d="M681.8438,510.7031 L679.3906,510.7031 L679.3906,500.4531 L676.25,500.4531 L676.25,498.3125 L684.9844,498.3125 L684.9844,500.4531 L681.8438,500.4531 L681.8438,510.7031 Z "/><text fill="#000000" font-family="sans-serif" font-size="12" lengthAdjust="spacingAndGlyphs" textLength="61" x="701.5" y="508.1074">EntryType</text><line style="stroke: #A80036; stroke-width: 1.5;" x1="637.75" x2="793.75" y1="519.9531" y2="519.9531"/><text fill="#000000" font-family="sans-serif" font-size="11" lengthAdjust="spacingAndGlyphs" textLength="119" x="642.75" y="534.1636">Defines type of entry</text><text fill="#000000" font-family="sans-serif" font-size="11" lengthAdjust="spacingAndGlyphs" textLength="57" x="642.75" y="562.1011">fk: entryId</text><text fill="#000000" font-family="sans-serif" font-size="11" lengthAdjust="spacingAndGlyphs" textLength="127" x="642.75" y="574.9058">fullWord | morpheme |</text><text fill="#000000" font-family="sans-serif" font-size="11" lengthAdjust="spacingAndGlyphs" textLength="146" x="642.75" y="587.7104">compoundpart | number |</text><text fill="#000000" font-family="sans-serif" font-size="11" lengthAdjust="spacingAndGlyphs" textLength="139" x="642.75" y="600.5151">acronym | abbreviation |</text><text fill="#000000" font-family="sans-serif" font-size="11" lengthAdjust="spacingAndGlyphs" textLength="12" x="642.75" y="613.3198">...</text><line style="stroke: #A80036; stroke-width: 1.5;" x1="637.75" x2="793.75" y1="619.9141" y2="619.9141"/><rect fill="#FEFECE" filter="url(#f1)" height="152.7656" style="stroke: #A80036; stroke-width: 1.5;" width="145" x="456" y="481.4531"/><ellipse cx="484.95" cy="497.4531" fill="#FFFFFF" rx="11" ry="11" style="stroke: #A80036; stroke-width: 1.0;"/><path d="M485.7938,504.2031 L483.3406,504.2031 L483.3406,493.9531 L480.2,493.9531 L480.2,491.8125 L488.9344,491.8125 L488.9344,493.9531 L485.7938,493.9531 L485.7938,504.2031 Z "/><text fill="#000000" font-family="sans-serif" font-size="12" lengthAdjust="spacingAndGlyphs" textLength="82" x="502.05" y="501.6074">Transcription</text><line style="stroke: #A80036; stroke-width: 1.5;" x1="457" x2="600" y1="513.4531" y2="513.4531"/><text fill="#000000" font-family="sans-serif" font-size="11" lengthAdjust="spacingAndGlyphs" textLength="133" x="462" y="527.6636">Transkription of a word</text><text fill="#000000" font-family="sans-serif" font-size="11" lengthAdjust="spacingAndGlyphs" textLength="33" x="462" y="555.6011">string</text><text fill="#000000" font-family="sans-serif" font-size="11" lengthAdjust="spacingAndGlyphs" textLength="57" x="462" y="568.4058">fk: entryId</text><text fill="#000000" font-family="sans-serif" font-size="11" lengthAdjust="spacingAndGlyphs" textLength="82" x="462" y="581.2104">mark_up_code</text><text fill="#000000" font-family="sans-serif" font-size="11" lengthAdjust="spacingAndGlyphs" textLength="52" x="462" y="594.0151">language</text><text fill="#000000" font-family="sans-serif" font-size="11" lengthAdjust="spacingAndGlyphs" textLength="48" x="462" y="606.8198">ordering</text><text fill="#000000" font-family="sans-serif" font-size="11" lengthAdjust="spacingAndGlyphs" textLength="27" x="462" y="619.6245">label</text><line style="stroke: #A80036; stroke-width: 1.5;" x1="457" x2="600" y1="626.2188" y2="626.2188"/><rect fill="#FEFECE" filter="url(#f1)" height="101.5469" style="stroke: #A80036; stroke-width: 1.5;" width="130" x="526.25" y="694.9531"/><ellipse cx="566.9" cy="710.9531" fill="#FFFFFF" rx="11" ry="11" style="stroke: #A80036; stroke-width: 1.0;"/><path d="M567.7438,717.7031 L565.2906,717.7031 L565.2906,707.4531 L562.15,707.4531 L562.15,705.3125 L570.8844,705.3125 L570.8844,707.4531 L567.7438,707.4531 L567.7438,717.7031 Z "/><text fill="#000000" font-family="sans-serif" font-size="12" lengthAdjust="spacingAndGlyphs" textLength="41" x="586.6" y="715.1074">Status</text><line style="stroke: #A80036; stroke-width: 1.5;" x1="527.25" x2="655.25" y1="726.9531" y2="726.9531"/><text fill="#000000" font-family="sans-serif" font-size="11" lengthAdjust="spacingAndGlyphs" textLength="79" x="532.25" y="741.1636">Quality status</text><text fill="#000000" font-family="sans-serif" font-size="11" lengthAdjust="spacingAndGlyphs" textLength="118" x="532.25" y="769.1011">unverified | verified |</text><text fill="#000000" font-family="sans-serif" font-size="11" lengthAdjust="spacingAndGlyphs" textLength="98" x="532.25" y="781.9058">valid | invalid | ...</text><line style="stroke: #A80036; stroke-width: 1.5;" x1="527.25" x2="655.25" y1="788.5" y2="788.5"/><polygon fill="#FBFB77" filter="url(#f1)" points="846.25,733.4531,846.25,758.5859,1188.25,758.5859,1188.25,743.4531,1178.25,733.4531,846.25,733.4531" style="stroke: #A80036; stroke-width: 1.0;"/><line style="stroke: #A80036; stroke-width: 1.0;" x1="1178.25" x2="1178.25" y1="733.4531" y2="743.4531"/><line style="stroke: #A80036; stroke-width: 1.0;" x1="1188.25" x2="1178.25" y1="743.4531" y2="743.4531"/><text fill="#000000" font-family="sans-serif" font-size="13" lengthAdjust="spacingAndGlyphs" textLength="321" x="852.25" y="750.52">Status might be inferred by number of editors, etc</text><rect fill="#FEFECE" filter="url(#f1)" height="165.5703" style="stroke: #A80036; stroke-width: 1.5;" width="207" x="874" y="28.9531"/><ellipse cx="921.75" cy="44.9531" fill="#FFFFFF" rx="11" ry="11" style="stroke: #A80036; stroke-width: 1.0;"/><path d="M922.5938,51.7031 L920.1406,51.7031 L920.1406,41.4531 L917,41.4531 L917,39.3125 L925.7344,39.3125 L925.7344,41.4531 L922.5938,41.4531 L922.5938,51.7031 Z "/><text fill="#000000" font-family="sans-serif" font-size="12" lengthAdjust="spacingAndGlyphs" textLength="103" x="942.25" y="49.1074">PhonemeSymbol</text><line style="stroke: #A80036; stroke-width: 1.5;" x1="875" x2="1080" y1="60.9531" y2="60.9531"/><text fill="#000000" font-family="sans-serif" font-size="11" lengthAdjust="spacingAndGlyphs" textLength="125" x="880" y="75.1636">Defines valid phonetic</text><text fill="#000000" font-family="sans-serif" font-size="11" lengthAdjust="spacingAndGlyphs" textLength="135" x="880" y="87.9683">symbols for a language</text><text fill="#000000" font-family="sans-serif" font-size="11" lengthAdjust="spacingAndGlyphs" textLength="80" x="880" y="115.9058">symbol_string</text><text fill="#000000" font-family="sans-serif" font-size="11" lengthAdjust="spacingAndGlyphs" textLength="64" x="880" y="128.7104">ipa_symbol</text><text fill="#000000" font-family="sans-serif" font-size="11" lengthAdjust="spacingAndGlyphs" textLength="195" x="880" y="141.5151">symbol_type: phoneme|consonant</text><text fill="#000000" font-family="sans-serif" font-size="11" lengthAdjust="spacingAndGlyphs" textLength="77" x="932" y="154.3198">|vowel|stress</text><text fill="#000000" font-family="sans-serif" font-size="11" lengthAdjust="spacingAndGlyphs" textLength="70" x="932" y="167.1245">|delimiter|...</text><text fill="#000000" font-family="sans-serif" font-size="11" lengthAdjust="spacingAndGlyphs" textLength="90" x="880" y="179.9292">language_name</text><line style="stroke: #A80036; stroke-width: 1.5;" x1="875" x2="1080" y1="186.5234" y2="186.5234"/><path d="M641.041,694.9291 C656.069,682.7411 673.47,671.4021 691.75,664.9531 C804.877,625.0391 946.709,701.8111 997.796,733.3231 " fill="none" style="stroke: #A80036; stroke-width: 1.0; stroke-dasharray: 7.0,7.0;"/><path d="M465.25,163.2231 C465.25,190.1821 465.25,224.0801 465.25,254.7601 " fill="none" style="stroke: #A80036; stroke-width: 1.0;"/><text fill="#000000" font-family="sans-serif" font-size="13" lengthAdjust="spacingAndGlyphs" textLength="23" x="439.7266" y="182.4883">0..*</text><text fill="#000000" font-family="sans-serif" font-size="13" lengthAdjust="spacingAndGlyphs" textLength="23" x="440.2738" y="243.8283">0..*</text><path d="M559.408,421.0591 C584.876,443.2671 612.166,467.0641 636.679,488.4391 " fill="none" style="stroke: #A80036; stroke-width: 1.0;"/><text fill="#000000" font-family="sans-serif" font-size="13" lengthAdjust="spacingAndGlyphs" textLength="8" x="557.7707" y="440.6526">1</text><text fill="#000000" font-family="sans-serif" font-size="13" lengthAdjust="spacingAndGlyphs" textLength="23" x="609.1317" y="475.2663">1..*</text><path d="M488.978,421.0591 C494.698,440.8531 500.783,461.9091 506.412,481.3881 " fill="none" style="stroke: #A80036; stroke-width: 1.0;"/><text fill="#000000" font-family="sans-serif" font-size="13" lengthAdjust="spacingAndGlyphs" textLength="8" x="481.5082" y="440.6526">1</text><text fill="#000000" font-family="sans-serif" font-size="13" lengthAdjust="spacingAndGlyphs" textLength="23" x="479.5477" y="470.4258">1..*</text><path d="M395.95,421.0591 C371.602,449.9051 344.992,481.4321 323.538,506.8511 " fill="none" style="stroke: #A80036; stroke-width: 1.0;"/><text fill="#000000" font-family="sans-serif" font-size="13" lengthAdjust="spacingAndGlyphs" textLength="23" x="365.1552" y="440.6526">1..*</text><text fill="#000000" font-family="sans-serif" font-size="13" lengthAdjust="spacingAndGlyphs" textLength="24" x="301.8955" y="496.0604">0..1</text><path d="M446.905,421.1751 C443.31,440.6711 440.086,461.4661 438.25,480.9531 C425.458,616.7081 449.062,777.0551 463.404,856.7501 " fill="none" style="stroke: #A80036; stroke-width: 1.0;"/><text fill="#000000" font-family="sans-serif" font-size="13" lengthAdjust="spacingAndGlyphs" textLength="8" x="436.0248" y="440.4938">1</text><text fill="#000000" font-family="sans-serif" font-size="13" lengthAdjust="spacingAndGlyphs" textLength="23" x="436.7624" y="845.9477">1..*</text><path d="M568.637,350.6771 C649.724,365.9121 757.55,400.8671 811.25,480.9531 C854.899,546.0491 816.228,638.3521 783.959,694.8001 " fill="none" style="stroke: #A80036; stroke-width: 1.0;"/><text fill="#000000" font-family="sans-serif" font-size="13" lengthAdjust="spacingAndGlyphs" textLength="23" x="762.2668" y="684.0035">0..*</text><path d="M361.737,389.1481 C310.9,414.9111 249.323,447.7971 196.25,480.9531 C189.043,485.4551 181.684,490.2961 174.377,495.2741 " fill="none" style="stroke: #A80036; stroke-width: 1.0;"/><text fill="#000000" font-family="sans-serif" font-size="13" lengthAdjust="spacingAndGlyphs" textLength="8" x="346.1093" y="387.8339">1</text><text fill="#000000" font-family="sans-serif" font-size="13" lengthAdjust="spacingAndGlyphs" textLength="23" x="157.2063" y="484.3493">0..*</text><path d="M691.837,786.1621 C685.932,789.8691 679.998,793.5211 674.25,796.9531 C633.095,821.5291 586.15,847.3411 547.984,867.78 " fill="none" style="stroke: #A80036; stroke-width: 1.0;"/><text fill="#000000" font-family="sans-serif" font-size="13" lengthAdjust="spacingAndGlyphs" textLength="8" x="676.1686" y="785.5292">1</text><text fill="#000000" font-family="sans-serif" font-size="13" lengthAdjust="spacingAndGlyphs" textLength="8" x="556.5408" y="858.5555">1</text><path d="M751.25,797.1391 C751.25,816.2011 751.25,837.8991 751.25,856.9451 " fill="none" style="stroke: #A80036; stroke-width: 1.0;"/><text fill="#000000" font-family="sans-serif" font-size="13" lengthAdjust="spacingAndGlyphs" textLength="8" x="741.6102" y="816.3941">1</text><text fill="#000000" font-family="sans-serif" font-size="13" lengthAdjust="spacingAndGlyphs" textLength="24" x="724.6352" y="845.7952">0..1</text><path d="M516.316,634.4641 C505.669,701.8311 490.38,798.5661 481.173,856.8241 " fill="none" style="stroke: #A80036; stroke-width: 1.0;"/><text fill="#000000" font-family="sans-serif" font-size="13" lengthAdjust="spacingAndGlyphs" textLength="8" x="505.7318" y="654.2927">1</text><text fill="#000000" font-family="sans-serif" font-size="13" lengthAdjust="spacingAndGlyphs" textLength="8" x="472.4532" y="846.0303">1</text><path d="M553.875,634.6061 C560.756,654.9231 568.025,676.3841 574.305,694.9251 " fill="none" style="stroke: #A80036; stroke-width: 1.0;"/><text fill="#000000" font-family="sans-serif" font-size="13" lengthAdjust="spacingAndGlyphs" textLength="8" x="546.6896" y="654.1842">1</text><text fill="#000000" font-family="sans-serif" font-size="13" lengthAdjust="spacingAndGlyphs" textLength="8" x="562.6305" y="683.7728">1</text><path d="M600.764,619.5261 C607.016,624.7451 613.244,629.9421 619.25,634.9531 C642.958,654.7311 669.072,676.4971 691.771,695.4111 " fill="none" style="stroke: #A80036; stroke-width: 1.0;"/><text fill="#000000" font-family="sans-serif" font-size="13" lengthAdjust="spacingAndGlyphs" textLength="8" x="609.1054" y="621.418">1</text><text fill="#000000" font-family="sans-serif" font-size="13" lengthAdjust="spacingAndGlyphs" textLength="24" x="662.7181" y="683.9567">0..1</text></g></svg>