<?xml version="1.0" encoding="UTF-8" standalone="yes"?><svg xmlns="http://www.w3.org/2000/svg" xmlns:xlink="http://www.w3.org/1999/xlink" height="530px" style="width:459px;height:530px;" version="1.1" viewBox="0 0 459 530" width="459px"><defs><filter height="300%" id="f1" width="300%" x="-1" y="-1"><feGaussianBlur result="blurOut" stdDeviation="2.0"/><feColorMatrix in="blurOut" result="blurOut2" type="matrix" values="0 0 0 0 0 0 0 0 0 0 0 0 0 0 0 0 0 0 .4 0"/><feOffset dx="4.0" dy="4.0" in="blurOut2" result="blurOut3"/><feBlend in="SourceGraphic" in2="blurOut3" mode="normal"/></filter></defs><g><ellipse cx="296.5" cy="17" fill="#FEFECE" filter="url(#f1)" rx="8" ry="8" style="stroke: #A80036; stroke-width: 2.0;"/><text fill="#000000" font-family="sans-serif" font-size="14" lengthAdjust="spacingAndGlyphs" textLength="73" x="260" y="38.9951">LexiconApi</text><ellipse cx="72.5" cy="207" fill="#FEFECE" filter="url(#f1)" rx="8" ry="8" style="stroke: #A80036; stroke-width: 2.0;"/><text fill="#000000" font-family="sans-serif" font-size="14" lengthAdjust="spacingAndGlyphs" textLength="133" x="6" y="228.9951">GraphemeRulesApi</text><ellipse cx="227.5" cy="207" fill="#FEFECE" filter="url(#f1)" rx="8" ry="8" style="stroke: #A80036; stroke-width: 2.0;"/><text fill="#000000" font-family="sans-serif" font-size="14" lengthAdjust="spacingAndGlyphs" textLength="106" x="174.5" y="228.9951">CompoundsApi</text><ellipse cx="366.5" cy="207" fill="#FEFECE" filter="url(#f1)" rx="8" ry="8" style="stroke: #A80036; stroke-width: 2.0;"/><text fill="#000000" font-family="sans-serif" font-size="14" lengthAdjust="spacingAndGlyphs" textLength="102" x="315.5" y="228.9951">MorphologyApi</text><rect fill="#FEFECE" filter="url(#f1)" height="36.2969" style="stroke: #A80036; stroke-width: 1.5;" width="72" x="260.5" y="102"/><rect fill="#FEFECE" height="5" style="stroke: #A80036; stroke-width: 1.5;" width="10" x="255.5" y="107"/><rect fill="#FEFECE" height="5" style="stroke: #A80036; stroke-width: 1.5;" width="10" x="255.5" y="128.2969"/><text fill="#000000" font-family="sans-serif" font-size="14" lengthAdjust="spacingAndGlyphs" textLength="52" x="270.5" y="124.9951">Lexicon</text><rect fill="#FEFECE" filter="url(#f1)" height="36.2969" style="stroke: #A80036; stroke-width: 1.5;" width="132" x="6.5" y="292"/><rect fill="#FEFECE" height="5" style="stroke: #A80036; stroke-width: 1.5;" width="10" x="1.5" y="297"/><rect fill="#FEFECE" height="5" style="stroke: #A80036; stroke-width: 1.5;" width="10" x="1.5" y="318.2969"/><text fill="#000000" font-family="sans-serif" font-size="14" lengthAdjust="spacingAndGlyphs" textLength="112" x="16.5" y="314.9951">GraphemeRules</text><rect fill="#FEFECE" filter="url(#f1)" height="36.2969" style="stroke: #A80036; stroke-width: 1.5;" width="105" x="176" y="292"/><rect fill="#FEFECE" height="5" style="stroke: #A80036; stroke-width: 1.5;" width="10" x="171" y="297"/><rect fill="#FEFECE" height="5" style="stroke: #A80036; stroke-width: 1.5;" width="10" x="171" y="318.2969"/><text fill="#000000" font-family="sans-serif" font-size="14" lengthAdjust="spacingAndGlyphs" textLength="85" x="186" y="314.9951">Compounds</text><rect fill="#FEFECE" filter="url(#f1)" height="36.2969" style="stroke: #A80036; stroke-width: 1.5;" width="101" x="316" y="292"/><rect fill="#FEFECE" height="5" style="stroke: #A80036; stroke-width: 1.5;" width="10" x="311" y="297"/><rect fill="#FEFECE" height="5" style="stroke: #A80036; stroke-width: 1.5;" width="10" x="311" y="318.2969"/><text fill="#000000" font-family="sans-serif" font-size="14" lengthAdjust="spacingAndGlyphs" textLength="81" x="326" y="314.9951">Morphology</text><path d="M320,492 C320,482 366.5,482 366.5,482 C366.5,482 413,482 413,492 L413,513.2969 C413,523.2969 366.5,523.2969 366.5,523.2969 C366.5,523.2969 320,523.2969 320,513.2969 L320,492 " fill="#FEFECE" filter="url(#f1)" style="stroke: #000000; stroke-width: 1.5;"/><path d="M320,492 C320,502 366.5,502 366.5,502 C366.5,502 413,502 413,492 " fill="none" style="stroke: #000000; stroke-width: 1.5;"/><text fill="#000000" font-family="sans-serif" font-size="14" lengthAdjust="spacingAndGlyphs" textLength="73" x="330" y="514.9951">LexiconDB</text><ellipse cx="366.5" cy="397" fill="#FEFECE" filter="url(#f1)" rx="8" ry="8" style="stroke: #A80036; stroke-width: 2.0;"/><text fill="#000000" font-family="sans-serif" font-size="14" lengthAdjust="spacingAndGlyphs" textLength="94" x="319.5" y="418.9951">LexiconDBApi</text><path d="M296.5,42.4245 C296.5,59.2441 296.5,84.6107 296.5,101.7147 " fill="none" style="stroke: #A80036; stroke-width: 1.0;"/><path d="M337.3938,130.5954 C370.3406,141.5259 414.5103,162.1529 435.5,198 C444.478,213.3329 458.3602,265.915 434.5,328 C425.9478,350.2532 407.7868,370.2609 392.3833,384.3008 " fill="none" style="stroke: #A80036; stroke-width: 1.0;"/><polygon fill="#A80036" points="388.5341,387.7395,397.9108,384.7266,392.2629,384.4084,392.5811,378.7605,388.5341,387.7395" style="stroke: #A80036; stroke-width: 1.0;"/><polygon fill="#A80036" points="332.6183,129.0524,339.9524,135.6259,337.3761,130.5898,342.4122,128.0135,332.6183,129.0524" style="stroke: #A80036; stroke-width: 1.0;"/><path d="M280.1731,142.4791 C268.9503,157.9307 254.137,178.3258 243.0787,193.551 " fill="none" style="stroke: #A80036; stroke-width: 1.0;"/><polygon fill="#A80036" points="240.0654,197.6998,248.5909,192.7686,243.0038,193.6543,242.1181,188.0672,240.0654,197.6998" style="stroke: #A80036; stroke-width: 1.0;"/><polygon fill="#A80036" points="283.1961,138.317,274.6708,143.2484,280.2578,142.3626,281.1436,147.9496,283.1961,138.317" style="stroke: #A80036; stroke-width: 1.0;"/><path d="M313.0636,142.4791 C324.4489,157.9307 339.4769,178.3258 350.6955,193.551 " fill="none" style="stroke: #A80036; stroke-width: 1.0;"/><polygon fill="#A80036" points="353.7525,197.6998,351.6339,188.0815,350.7865,193.6745,345.1935,192.8271,353.7525,197.6998" style="stroke: #A80036; stroke-width: 1.0;"/><polygon fill="#A80036" points="309.9967,138.317,312.1155,147.9352,312.9628,142.3422,318.5558,143.1895,309.9967,138.317" style="stroke: #A80036; stroke-width: 1.0;"/><path d="M255.1664,137.5299 C216.1434,154.0798 157.7711,178.8359 117.569,195.8859 " fill="none" style="stroke: #A80036; stroke-width: 1.0;"/><polygon fill="#A80036" points="112.7589,197.9259,122.6063,198.0943,117.362,195.9736,119.4827,190.7293,112.7589,197.9259" style="stroke: #A80036; stroke-width: 1.0;"/><polygon fill="#A80036" points="260.012,135.4748,250.1646,135.3061,255.4088,137.427,253.288,142.6712,260.012,135.4748" style="stroke: #A80036; stroke-width: 1.0;"/><path d="M366.5,422.431 C366.5,439.0824 366.5,464.1877 366.5,481.8377 " fill="none" style="stroke: #A80036; stroke-width: 1.0;"/><path d="M227.6834,232.4245 C227.8605,249.2441 228.1275,274.6107 228.3075,291.7147 " fill="none" style="stroke: #A80036; stroke-width: 1.0;"/><path d="M366.5,232.4245 C366.5,249.2441 366.5,274.6107 366.5,291.7147 " fill="none" style="stroke: #A80036; stroke-width: 1.0;"/><path d="M72.5,232.4245 C72.5,249.2441 72.5,274.6107 72.5,291.7147 " fill="none" style="stroke: #A80036; stroke-width: 1.0;"/><path d="M258.9939,330.9922 C282.3998,347.1049 314.5012,369.2037 337.5205,385.0503 " fill="none" style="stroke: #A80036; stroke-width: 1.0;"/><polygon fill="#A80036" points="341.7089,387.9336,336.5637,379.5356,337.5904,385.0985,332.0275,386.1252,341.7089,387.9336" style="stroke: #A80036; stroke-width: 1.0;"/><polygon fill="#A80036" points="254.7816,328.0924,259.9266,336.4905,258.9,330.9276,264.463,329.901,254.7816,328.0924" style="stroke: #A80036; stroke-width: 1.0;"/><path d="M366.5,333.3437 C366.5,348.3162 366.5,367.6521 366.5,382.464 " fill="none" style="stroke: #A80036; stroke-width: 1.0;"/><polygon fill="#A80036" points="366.5,387.6998,370.5,378.6998,366.5,382.6998,362.5,378.6998,366.5,387.6998" style="stroke: #A80036; stroke-width: 1.0;"/><polygon fill="#A80036" points="366.5,328.317,362.5,337.317,366.5,333.317,370.5,337.317,366.5,328.317" style="stroke: #A80036; stroke-width: 1.0;"/></g></svg>