<?xml version="1.0" encoding="UTF-8" standalone="yes"?><svg xmlns="http://www.w3.org/2000/svg" xmlns:xlink="http://www.w3.org/1999/xlink" height="966px" style="width:1197px;height:966px;" version="1.1" viewBox="0 0 1197 966" width="1197px"><defs><filter height="300%" id="f1" width="300%" x="-1" y="-1"><feGaussianBlur result="blurOut" stdDeviation="2.0"/><feColorMatrix in="blurOut" result="blurOut2" type="matrix" values="0 0 0 0 0 0 0 0 0 0 0 0 0 0 0 0 0 0 .4 0"/><feOffset dx="4.0" dy="4.0" in="blurOut2" result="blurOut3"/><feBlend in="SourceGraphic" in2="blurOut3" mode="normal"/></filter></defs><g><text fill="#000000" font-family="sans-serif" font-size="18" lengthAdjust="spacingAndGlyphs" textLength="152" x="527.5" y="16.708">Lexicon database</text><rect fill="#FEFECE" filter="url(#f1)" height="101.5469" style="stroke: #A80036; stroke-width: 1.5;" width="162" x="384.5" y="60.9531"/><ellipse cx="422.45" cy="76.9531" fill="#FFFFFF" rx="11" ry="11" style="stroke: #A80036; stroke-width: 1.0;"/><path d="M423.2938,83.7031 L420.8406,83.7031 L420.8406,73.4531 L417.7,73.4531 L417.7,71.3125 L426.4344,71.3125 L426.4344,73.4531 L423.2938,73.4531 L423.2938,83.7031 Z "/><text fill="#000000" font-family="sans-serif" font-size="12" lengthAdjust="spacingAndGlyphs" textLength="79" x="441.55" y="81.1074">SurfaceForm</text><line style="stroke: #A80036; stroke-width: 1.5;" x1="385.5" x2="545.5" y1="92.9531" y2="92.9531"/><text fill="#000000" font-family="sans-serif" font-size="11" lengthAdjust="spacingAndGlyphs" textLength="150" x="390.5" y="107.1636">Non-normalised text token</text><text fill="#000000" font-family="sans-serif" font-size="11" lengthAdjust="spacingAndGlyphs" textLength="123" x="390.5" y="135.1011">string unique indexed</text><text fill="#000000" font-family="sans-serif" font-size="11" lengthAdjust="spacingAndGlyphs" textLength="57" x="390.5" y="147.9058">fk: entryId</text><line style="stroke: #A80036; stroke-width: 1.5;" x1="385.5" x2="545.5" y1="154.5" y2="154.5"/><polygon fill="#FBFB77" filter="url(#f1)" points="582,99.4531,582,124.5859,839,124.5859,839,109.4531,829,99.4531,582,99.4531" style="stroke: #A80036; stroke-width: 1.0;"/><polygon fill="#FBFB77" points="582,99.4531,582,107.9531,546.8477,111.9531,582,115.9531,582,124.5859,839,124.5859,839,109.4531,829,99.4531,582,99.4531" style="stroke: #A80036; stroke-width: 1.0;"/><line style="stroke: #A80036; stroke-width: 1.0;" x1="829" x2="829" y1="99.4531" y2="109.4531"/><line style="stroke: #A80036; stroke-width: 1.0;" x1="839" x2="829" y1="109.4531" y2="109.4531"/><text fill="#000000" font-family="sans-serif" font-size="13" lengthAdjust="spacingAndGlyphs" textLength="236" x="588" y="116.52">Association table SurfaceForm2Entry</text><rect fill="#FEFECE" filter="url(#f1)" height="165.5703" style="stroke: #A80036; stroke-width: 1.5;" width="207" x="362" y="254.9531"/><ellipse cx="445.25" cy="270.9531" fill="#FFFFFF" rx="11" ry="11" style="stroke: #A80036; stroke-width: 1.0;"/><path d="M446.0938,277.7031 L443.6406,277.7031 L443.6406,267.4531 L440.5,267.4531 L440.5,265.3125 L449.2344,265.3125 L449.2344,267.4531 L446.0938,267.4531 L446.0938,277.7031 Z "/><text fill="#000000" font-family="sans-serif" font-size="12" lengthAdjust="spacingAndGlyphs" textLength="32" x="465.75" y="275.1074">Entry</text><line style="stroke: #A80036; stroke-width: 1.5;" x1="363" x2="568" y1="286.9531" y2="286.9531"/><text fill="#000000" font-family="sans-serif" font-size="11" lengthAdjust="spacingAndGlyphs" textLength="75" x="368" y="301.1636">Lexikon entry</text><text fill="#000000" font-family="sans-serif" font-size="11" lengthAdjust="spacingAndGlyphs" textLength="81" x="368" y="329.1011">string indexed</text><text fill="#000000" font-family="sans-serif" font-size="11" lengthAdjust="spacingAndGlyphs" textLength="126" x="368" y="341.9058">fk: normalisedTokenId</text><text fill="#000000" font-family="sans-serif" font-size="11" lengthAdjust="spacingAndGlyphs" textLength="64" x="368" y="354.7104">word_parts</text><text fill="#000000" font-family="sans-serif" font-size="11" lengthAdjust="spacingAndGlyphs" textLength="52" x="368" y="367.5151">language</text><text fill="#000000" font-family="sans-serif" font-size="11" lengthAdjust="spacingAndGlyphs" textLength="83" x="368" y="380.3198">part-of-speech</text><text fill="#000000" font-family="sans-serif" font-size="11" lengthAdjust="spacingAndGlyphs" textLength="27" x="368" y="393.1245">label</text><text fill="#000000" font-family="sans-serif" font-size="11" lengthAdjust="spacingAndGlyphs" textLength="195" x="368" y="405.9292">composite index: string+language</text><line style="stroke: #A80036; stroke-width: 1.5;" x1="363" x2="568" y1="412.5234" y2="412.5234"/><rect fill="#FEFECE" filter="url(#f1)" height="124.8281" style="stroke: #A80036; stroke-width: 1.5;" width="173" x="6" y="494.9531"/><ellipse cx="60.25" cy="510.9531" fill="#FFFFFF" rx="11" ry="11" style="stroke: #A80036; stroke-width: 1.0;"/><path d="M61.0938,517.7031 L58.6406,517.7031 L58.6406,507.4531 L55.5,507.4531 L55.5,505.3125 L64.2344,505.3125 L64.2344,507.4531 L61.0938,507.4531 L61.0938,517.7031 Z "/><text fill="#000000" font-family="sans-serif" font-size="12" lengthAdjust="spacingAndGlyphs" textLength="56" x="80.75" y="515.1074">AudioFile</text><line style="stroke: #A80036; stroke-width: 1.5;" x1="7" x2="178" y1="526.9531" y2="526.9531"/><text fill="#000000" font-family="sans-serif" font-size="11" lengthAdjust="spacingAndGlyphs" textLength="111" x="12" y="541.1636">Recording of user's</text><text fill="#000000" font-family="sans-serif" font-size="11" lengthAdjust="spacingAndGlyphs" textLength="125" x="12" y="553.9683">pronunciation of entry</text><line style="stroke: #A80036; stroke-width: 1.0;" x1="7" x2="178" y1="560.5625" y2="560.5625"/><line style="stroke: #A80036; stroke-width: 1.0;" x1="7" x2="178" y1="562.5625" y2="562.5625"/><text fill="#000000" font-family="sans-serif" font-size="11" lengthAdjust="spacingAndGlyphs" textLength="42" x="12" y="574.7729">user_id</text><text fill="#000000" font-family="sans-serif" font-size="11" lengthAdjust="spacingAndGlyphs" textLength="0" x="16" y="587.5776"/><text fill="#000000" font-family="sans-serif" font-size="11" lengthAdjust="spacingAndGlyphs" textLength="0" x="16" y="600.3823"/><text fill="#000000" font-family="sans-serif" font-size="11" lengthAdjust="spacingAndGlyphs" textLength="161" x="12" y="613.187">Binary data or pointer to file</text><rect fill="#FEFECE" filter="url(#f1)" height="101.5469" style="stroke: #A80036; stroke-width: 1.5;" width="135" x="214" y="506.4531"/><ellipse cx="255.55" cy="522.4531" fill="#FFFFFF" rx="11" ry="11" style="stroke: #A80036; stroke-width: 1.0;"/><path d="M256.3938,529.2031 L253.9406,529.2031 L253.9406,518.9531 L250.8,518.9531 L250.8,516.8125 L259.5344,516.8125 L259.5344,518.9531 L256.3938,518.9531 L256.3938,529.2031 Z "/><text fill="#000000" font-family="sans-serif" font-size="12" lengthAdjust="spacingAndGlyphs" textLength="44" x="275.45" y="526.6074">Lemma</text><line style="stroke: #A80036; stroke-width: 1.5;" x1="215" x2="348" y1="538.4531" y2="538.4531"/><text fill="#000000" font-family="sans-serif" font-size="11" lengthAdjust="spacingAndGlyphs" textLength="73" x="220" y="552.6636">Lemma form</text><text fill="#000000" font-family="sans-serif" font-size="11" lengthAdjust="spacingAndGlyphs" textLength="123" x="220" y="580.6011">string unique indexed</text><text fill="#000000" font-family="sans-serif" font-size="11" lengthAdjust="spacingAndGlyphs" textLength="64" x="220" y="593.4058">word_parts</text><line style="stroke: #A80036; stroke-width: 1.5;" x1="215" x2="348" y1="600" y2="600"/><rect fill="#FEFECE" filter="url(#f1)" height="101.5469" style="stroke: #A80036; stroke-width: 1.5;" width="150" x="398.5" y="855.9531"/><ellipse cx="450.75" cy="871.9531" fill="#FFFFFF" rx="11" ry="11" style="stroke: #A80036; stroke-width: 1.0;"/><path d="M451.5938,878.7031 L449.1406,878.7031 L449.1406,868.4531 L446,868.4531 L446,866.3125 L454.7344,866.3125 L454.7344,868.4531 L451.5938,868.4531 L451.5938,878.7031 Z "/><text fill="#000000" font-family="sans-serif" font-size="12" lengthAdjust="spacingAndGlyphs" textLength="37" x="471.25" y="876.1074">Editor</text><line style="stroke: #A80036; stroke-width: 1.5;" x1="399.5" x2="547.5" y1="887.9531" y2="887.9531"/><text fill="#000000" font-family="sans-serif" font-size="11" lengthAdjust="spacingAndGlyphs" textLength="138" x="404.5" y="902.1636">Identifies who and when</text><text fill="#000000" font-family="sans-serif" font-size="11" lengthAdjust="spacingAndGlyphs" textLength="49" x="404.5" y="930.1011">editor_id</text><text fill="#000000" font-family="sans-serif" font-size="11" lengthAdjust="spacingAndGlyphs" textLength="61" x="404.5" y="942.9058">timestamp</text><line style="stroke: #A80036; stroke-width: 1.5;" x1="399.5" x2="547.5" y1="949.5" y2="949.5"/><rect fill="#FEFECE" filter="url(#f1)" height="101.5469" style="stroke: #A80036; stroke-width: 1.5;" width="119" x="692" y="693.9531"/><ellipse cx="719.6" cy="709.9531" fill="#FFFFFF" rx="11" ry="11" style="stroke: #A80036; stroke-width: 1.0;"/><path d="M720.4438,716.7031 L717.9906,716.7031 L717.9906,706.4531 L714.85,706.4531 L714.85,704.3125 L723.5844,704.3125 L723.5844,706.4531 L720.4438,706.4531 L720.4438,716.7031 Z "/><text fill="#000000" font-family="sans-serif" font-size="12" lengthAdjust="spacingAndGlyphs" textLength="59" x="736.4" y="714.1074">Comment</text><line style="stroke: #A80036; stroke-width: 1.5;" x1="693" x2="810" y1="725.9531" y2="725.9531"/><text fill="#000000" font-family="sans-serif" font-size="11" lengthAdjust="spacingAndGlyphs" textLength="107" x="698" y="740.1636">Free text comment</text><text fill="#000000" font-family="sans-serif" font-size="11" lengthAdjust="spacingAndGlyphs" textLength="21" x="698" y="768.1011">text</text><text fill="#000000" font-family="sans-serif" font-size="11" lengthAdjust="spacingAndGlyphs" textLength="61" x="698" y="780.9058">timestamp</text><line style="stroke: #A80036; stroke-width: 1.5;" x1="693" x2="810" y1="787.5" y2="787.5"/><rect fill="#FEFECE" filter="url(#f1)" height="101.5469" style="stroke: #A80036; stroke-width: 1.5;" width="181" x="661" y="855.9531"/><ellipse cx="703.45" cy="871.9531" fill="#FFFFFF" rx="11" ry="11" style="stroke: #A80036; stroke-width: 1.0;"/><path d="M704.2938,878.7031 L701.8406,878.7031 L701.8406,868.4531 L698.7,868.4531 L698.7,866.3125 L707.4344,866.3125 L707.4344,868.4531 L704.2938,868.4531 L704.2938,878.7031 Z "/><text fill="#000000" font-family="sans-serif" font-size="12" lengthAdjust="spacingAndGlyphs" textLength="88" x="723.55" y="876.1074">CommentType</text><line style="stroke: #A80036; stroke-width: 1.5;" x1="662" x2="841" y1="887.9531" y2="887.9531"/><text fill="#000000" font-family="sans-serif" font-size="11" lengthAdjust="spacingAndGlyphs" textLength="169" x="667" y="902.1636">Names of types of comments</text><text fill="#000000" font-family="sans-serif" font-size="11" lengthAdjust="spacingAndGlyphs" textLength="126" x="667" y="930.1011">problematic | variant |</text><text fill="#000000" font-family="sans-serif" font-size="11" lengthAdjust="spacingAndGlyphs" textLength="60" x="667" y="942.9058">invalid | ...</text><line style="stroke: #A80036; stroke-width: 1.5;" x1="662" x2="841" y1="949.5" y2="949.5"/><rect fill="#FEFECE" filter="url(#f1)" height="139.9609" style="stroke: #A80036; stroke-width: 1.5;" width="158" x="636.5" y="487.4531"/><ellipse cx="680.75" cy="503.4531" fill="#FFFFFF" rx="11" ry="11" style="stroke: #A80036; stroke-width: 1.0;"/><path d="M681.5938,510.2031 L679.1406,510.2031 L679.1406,499.9531 L676,499.9531 L676,497.8125 L684.7344,497.8125 L684.7344,499.9531 L681.5938,499.9531 L681.5938,510.2031 Z "/><text fill="#000000" font-family="sans-serif" font-size="12" lengthAdjust="spacingAndGlyphs" textLength="61" x="701.25" y="507.6074">EntryType</text><line style="stroke: #A80036; stroke-width: 1.5;" x1="637.5" x2="793.5" y1="519.4531" y2="519.4531"/><text fill="#000000" font-family="sans-serif" font-size="11" lengthAdjust="spacingAndGlyphs" textLength="119" x="642.5" y="533.6636">Defines type of entry</text><text fill="#000000" font-family="sans-serif" font-size="11" lengthAdjust="spacingAndGlyphs" textLength="57" x="642.5" y="561.6011">fk: entryId</text><text fill="#000000" font-family="sans-serif" font-size="11" lengthAdjust="spacingAndGlyphs" textLength="127" x="642.5" y="574.4058">fullWord | morpheme |</text><text fill="#000000" font-family="sans-serif" font-size="11" lengthAdjust="spacingAndGlyphs" textLength="146" x="642.5" y="587.2104">compoundpart | number |</text><text fill="#000000" font-family="sans-serif" font-size="11" lengthAdjust="spacingAndGlyphs" textLength="139" x="642.5" y="600.0151">acronym | abbreviation |</text><text fill="#000000" font-family="sans-serif" font-size="11" lengthAdjust="spacingAndGlyphs" textLength="12" x="642.5" y="612.8198">...</text><line style="stroke: #A80036; stroke-width: 1.5;" x1="637.5" x2="793.5" y1="619.4141" y2="619.4141"/><rect fill="#FEFECE" filter="url(#f1)" height="152.7656" style="stroke: #A80036; stroke-width: 1.5;" width="145" x="456" y="480.9531"/><ellipse cx="484.95" cy="496.9531" fill="#FFFFFF" rx="11" ry="11" style="stroke: #A80036; stroke-width: 1.0;"/><path d="M485.7938,503.7031 L483.3406,503.7031 L483.3406,493.4531 L480.2,493.4531 L480.2,491.3125 L488.9344,491.3125 L488.9344,493.4531 L485.7938,493.4531 L485.7938,503.7031 Z "/><text fill="#000000" font-family="sans-serif" font-size="12" lengthAdjust="spacingAndGlyphs" textLength="82" x="502.05" y="501.1074">Transcription</text><line style="stroke: #A80036; stroke-width: 1.5;" x1="457" x2="600" y1="512.9531" y2="512.9531"/><text fill="#000000" font-family="sans-serif" font-size="11" lengthAdjust="spacingAndGlyphs" textLength="133" x="462" y="527.1636">Transkription of a word</text><text fill="#000000" font-family="sans-serif" font-size="11" lengthAdjust="spacingAndGlyphs" textLength="33" x="462" y="555.1011">string</text><text fill="#000000" font-family="sans-serif" font-size="11" lengthAdjust="spacingAndGlyphs" textLength="57" x="462" y="567.9058">fk: entryId</text><text fill="#000000" font-family="sans-serif" font-size="11" lengthAdjust="spacingAndGlyphs" textLength="82" x="462" y="580.7104">mark_up_code</text><text fill="#000000" font-family="sans-serif" font-size="11" lengthAdjust="spacingAndGlyphs" textLength="52" x="462" y="593.5151">language</text><text fill="#000000" font-family="sans-serif" font-size="11" lengthAdjust="spacingAndGlyphs" textLength="48" x="462" y="606.3198">ordering</text><text fill="#000000" font-family="sans-serif" font-size="11" lengthAdjust="spacingAndGlyphs" textLength="27" x="462" y="619.1245">label</text><line style="stroke: #A80036; stroke-width: 1.5;" x1="457" x2="600" y1="625.7188" y2="625.7188"/><rect fill="#FEFECE" filter="url(#f1)" height="101.5469" style="stroke: #A80036; stroke-width: 1.5;" width="130" x="526.5" y="693.9531"/><ellipse cx="567.15" cy="709.9531" fill="#FFFFFF" rx="11" ry="11" style="stroke: #A80036; stroke-width: 1.0;"/><path d="M567.9938,716.7031 L565.5406,716.7031 L565.5406,706.4531 L562.4,706.4531 L562.4,704.3125 L571.1344,704.3125 L571.1344,706.4531 L567.9938,706.4531 L567.9938,716.7031 Z "/><text fill="#000000" font-family="sans-serif" font-size="12" lengthAdjust="spacingAndGlyphs" textLength="41" x="586.85" y="714.1074">Status</text><line style="stroke: #A80036; stroke-width: 1.5;" x1="527.5" x2="655.5" y1="725.9531" y2="725.9531"/><text fill="#000000" font-family="sans-serif" font-size="11" lengthAdjust="spacingAndGlyphs" textLength="79" x="532.5" y="740.1636">Quality status</text><text fill="#000000" font-family="sans-serif" font-size="11" lengthAdjust="spacingAndGlyphs" textLength="118" x="532.5" y="768.1011">unverified | verified |</text><text fill="#000000" font-family="sans-serif" font-size="11" lengthAdjust="spacingAndGlyphs" textLength="98" x="532.5" y="780.9058">valid | invalid | ...</text><line style="stroke: #A80036; stroke-width: 1.5;" x1="527.5" x2="655.5" y1="787.5" y2="787.5"/><polygon fill="#FBFB77" filter="url(#f1)" points="846.5,732.4531,846.5,757.5859,1188.5,757.5859,1188.5,742.4531,1178.5,732.4531,846.5,732.4531" style="stroke: #A80036; stroke-width: 1.0;"/><line style="stroke: #A80036; stroke-width: 1.0;" x1="1178.5" x2="1178.5" y1="732.4531" y2="742.4531"/><line style="stroke: #A80036; stroke-width: 1.0;" x1="1188.5" x2="1178.5" y1="742.4531" y2="742.4531"/><text fill="#000000" font-family="sans-serif" font-size="13" lengthAdjust="spacingAndGlyphs" textLength="321" x="852.5" y="749.52">Status might be inferred by number of editors, etc</text><rect fill="#FEFECE" filter="url(#f1)" height="165.5703" style="stroke: #A80036; stroke-width: 1.5;" width="207" x="874" y="28.9531"/><ellipse cx="921.75" cy="44.9531" fill="#FFFFFF" rx="11" ry="11" style="stroke: #A80036; stroke-width: 1.0;"/><path d="M922.5938,51.7031 L920.1406,51.7031 L920.1406,41.4531 L917,41.4531 L917,39.3125 L925.7344,39.3125 L925.7344,41.4531 L922.5938,41.4531 L922.5938,51.7031 Z "/><text fill="#000000" font-family="sans-serif" font-size="12" lengthAdjust="spacingAndGlyphs" textLength="103" x="942.25" y="49.1074">PhonemeSymbol</text><line style="stroke: #A80036; stroke-width: 1.5;" x1="875" x2="1080" y1="60.9531" y2="60.9531"/><text fill="#000000" font-family="sans-serif" font-size="11" lengthAdjust="spacingAndGlyphs" textLength="125" x="880" y="75.1636">Defines valid phonetic</text><text fill="#000000" font-family="sans-serif" font-size="11" lengthAdjust="spacingAndGlyphs" textLength="135" x="880" y="87.9683">symbols for a language</text><text fill="#000000" font-family="sans-serif" font-size="11" lengthAdjust="spacingAndGlyphs" textLength="80" x="880" y="115.9058">symbol_string</text><text fill="#000000" font-family="sans-serif" font-size="11" lengthAdjust="spacingAndGlyphs" textLength="64" x="880" y="128.7104">ipa_symbol</text><text fill="#000000" font-family="sans-serif" font-size="11" lengthAdjust="spacingAndGlyphs" textLength="195" x="880" y="141.5151">symbol_type: phoneme|consonant</text><text fill="#000000" font-family="sans-serif" font-size="11" lengthAdjust="spacingAndGlyphs" textLength="77" x="932" y="154.3198">|vowel|stress</text><text fill="#000000" font-family="sans-serif" font-size="11" lengthAdjust="spacingAndGlyphs" textLength="70" x="932" y="167.1245">|delimiter|...</text><text fill="#000000" font-family="sans-serif" font-size="11" lengthAdjust="spacingAndGlyphs" textLength="90" x="880" y="179.9292">language_name</text><line style="stroke: #A80036; stroke-width: 1.5;" x1="875" x2="1080" y1="186.5234" y2="186.5234"/><path d="M641.2907,693.9291 C656.3195,681.7414 673.7202,670.4026 692,663.9531 C805.127,624.0396 946.9586,700.8112 998.0462,732.3226 " fill="none" style="stroke: #A80036; stroke-width: 1.0; stroke-dasharray: 7.0,7.0;"/><path d="M465.5,162.9537 C465.5,190.0329 465.5,223.9919 465.5,254.7719 " fill="none" style="stroke: #A80036; stroke-width: 1.0;"/><text fill="#000000" font-family="sans-serif" font-size="13" lengthAdjust="spacingAndGlyphs" textLength="23" x="441.0266" y="182.5535">0..*</text><text fill="#000000" font-family="sans-serif" font-size="13" lengthAdjust="spacingAndGlyphs" textLength="23" x="441.4758" y="243.7876">0..*</text><path d="M560.3708,421.2496 C585.3725,443.2011 612.0842,466.654 636.1724,487.8035 " fill="none" style="stroke: #A80036; stroke-width: 1.0;"/><text fill="#000000" font-family="sans-serif" font-size="13" lengthAdjust="spacingAndGlyphs" textLength="8" x="559.6121" y="440.5743">1</text><text fill="#000000" font-family="sans-serif" font-size="13" lengthAdjust="spacingAndGlyphs" textLength="23" x="609.0949" y="474.7214">1..*</text><path d="M489.4074,421.2496 C495.0117,440.7756 500.9569,461.4894 506.4745,480.7134 " fill="none" style="stroke: #A80036; stroke-width: 1.0;"/><text fill="#000000" font-family="sans-serif" font-size="13" lengthAdjust="spacingAndGlyphs" textLength="8" x="482.9938" y="440.5743">1</text><text fill="#000000" font-family="sans-serif" font-size="13" lengthAdjust="spacingAndGlyphs" textLength="23" x="480.2791" y="469.7687">1..*</text><path d="M395.6751,421.2496 C371.6823,449.8715 345.5498,481.0458 324.3478,506.3385 " fill="none" style="stroke: #A80036; stroke-width: 1.0;"/><text fill="#000000" font-family="sans-serif" font-size="13" lengthAdjust="spacingAndGlyphs" textLength="23" x="366.1945" y="440.5743">1..*</text><text fill="#000000" font-family="sans-serif" font-size="13" lengthAdjust="spacingAndGlyphs" textLength="24" x="304.493" y="495.5685">0..1</text><path d="M447.0861,421.1366 C443.5186,440.6607 440.3243,461.4579 438.5,480.9531 C425.8473,616.1622 449.1691,775.7512 463.4986,855.7724 " fill="none" style="stroke: #A80036; stroke-width: 1.0;"/><text fill="#000000" font-family="sans-serif" font-size="13" lengthAdjust="spacingAndGlyphs" textLength="8" x="437.3" y="440.4523">1</text><text fill="#000000" font-family="sans-serif" font-size="13" lengthAdjust="spacingAndGlyphs" textLength="23" x="437.6093" y="844.9935">1..*</text><path d="M569.1998,349.8891 C650.5295,365.3079 758.6707,400.5488 812.5,480.9531 C855.8764,545.744 817.5122,637.306 785.0715,693.812 " fill="none" style="stroke: #A80036; stroke-width: 1.0;"/><text fill="#000000" font-family="sans-serif" font-size="13" lengthAdjust="spacingAndGlyphs" textLength="23" x="765.0374" y="683.0384">0..*</text><path d="M361.9706,388.521 C311.1304,414.4697 249.5547,447.5865 196.5,480.9531 C189.5746,485.3086 182.5098,489.9772 175.4862,494.7811 " fill="none" style="stroke: #A80036; stroke-width: 1.0;"/><text fill="#000000" font-family="sans-serif" font-size="13" lengthAdjust="spacingAndGlyphs" textLength="8" x="346.0739" y="388.7714">1</text><text fill="#000000" font-family="sans-serif" font-size="13" lengthAdjust="spacingAndGlyphs" textLength="23" x="160.7518" y="483.752">0..*</text><path d="M691.6897,785.2386 C685.919,788.9224 680.1224,792.5462 674.5,795.9531 C633.5887,820.7431 586.8667,846.6822 548.7708,867.246 " fill="none" style="stroke: #A80036; stroke-width: 1.0;"/><text fill="#000000" font-family="sans-serif" font-size="13" lengthAdjust="spacingAndGlyphs" textLength="8" x="675.9128" y="786.337">1</text><text fill="#000000" font-family="sans-serif" font-size="13" lengthAdjust="spacingAndGlyphs" textLength="8" x="556.574" y="859.6948">1</text><path d="M751.5,796.2109 C751.5,815.2138 751.5,836.7529 751.5,855.7509 " fill="none" style="stroke: #A80036; stroke-width: 1.0;"/><text fill="#000000" font-family="sans-serif" font-size="13" lengthAdjust="spacingAndGlyphs" textLength="8" x="743.0125" y="815.4746">1</text><text fill="#000000" font-family="sans-serif" font-size="13" lengthAdjust="spacingAndGlyphs" textLength="24" x="725.8875" y="844.9691">0..1</text><path d="M516.43,634.1524 C505.8369,701.4671 490.7273,797.4814 481.5465,855.8214 " fill="none" style="stroke: #A80036; stroke-width: 1.0;"/><text fill="#000000" font-family="sans-serif" font-size="13" lengthAdjust="spacingAndGlyphs" textLength="8" x="506.9988" y="653.7347">1</text><text fill="#000000" font-family="sans-serif" font-size="13" lengthAdjust="spacingAndGlyphs" textLength="8" x="474.0902" y="845.0491">1</text><path d="M554.2154,633.987 C560.9861,654.138 568.1261,675.3879 574.3255,693.8384 " fill="none" style="stroke: #A80036; stroke-width: 1.0;"/><text fill="#000000" font-family="sans-serif" font-size="13" lengthAdjust="spacingAndGlyphs" textLength="8" x="548.2173" y="653.8177">1</text><text fill="#000000" font-family="sans-serif" font-size="13" lengthAdjust="spacingAndGlyphs" textLength="8" x="563.4802" y="683.0683">1</text><path d="M601.21,618.5882 C630.5703,643.2746 664.03,671.4077 691.9135,694.8523 " fill="none" style="stroke: #A80036; stroke-width: 1.0;"/><text fill="#000000" font-family="sans-serif" font-size="13" lengthAdjust="spacingAndGlyphs" textLength="8" x="609.1207" y="621.2052">1</text><text fill="#000000" font-family="sans-serif" font-size="13" lengthAdjust="spacingAndGlyphs" textLength="24" x="663.4834" y="682.9691">0..1</text></g></svg>