<?xml version="1.0" encoding="UTF-8" standalone="yes"?><svg xmlns="http://www.w3.org/2000/svg" xmlns:xlink="http://www.w3.org/1999/xlink" height="561px" style="width:710px;height:561px;" version="1.1" viewBox="0 0 710 561" width="710px"><defs><filter height="300%" id="f1" width="300%" x="-1" y="-1"><feGaussianBlur result="blurOut" stdDeviation="2.0"/><feColorMatrix in="blurOut" result="blurOut2" type="matrix" values="0 0 0 0 0 0 0 0 0 0 0 0 0 0 0 0 0 0 .4 0"/><feOffset dx="4.0" dy="4.0" in="blurOut2" result="blurOut3"/><feBlend in="SourceGraphic" in2="blurOut3" mode="normal"/></filter></defs><g><text fill="#000000" font-family="sans-serif" font-size="18" lengthAdjust="spacingAndGlyphs" textLength="140" x="289.5" y="16.708">Textprocessing:</text><text fill="#000000" font-family="sans-serif" font-size="18" lengthAdjust="spacingAndGlyphs" textLength="219" x="250" y="37.6611">component and example</text><rect fill="#FEFECE" filter="url(#f1)" height="86.4141" style="stroke: #A80036; stroke-width: 1.5;" width="276" x="20.5" y="49.9063"/><ellipse cx="45.4" cy="65.9063" fill="#ADD1B2" rx="11" ry="11" style="stroke: #A80036; stroke-width: 1.0;"/><path d="M48.3688,71.5469 Q47.7906,71.8438 47.15,71.9922 Q46.5094,72.1406 45.8063,72.1406 Q43.3063,72.1406 41.9859,70.4922 Q40.6656,68.8438 40.6656,65.7188 Q40.6656,62.5938 41.9859,60.9375 Q43.3063,59.2813 45.8063,59.2813 Q46.5094,59.2813 47.1578,59.4375 Q47.8063,59.5938 48.3688,59.8906 L48.3688,62.6094 Q47.7438,62.0313 47.15,61.7578 Q46.5563,61.4844 45.9313,61.4844 Q44.5875,61.4844 43.9,62.5547 Q43.2125,63.625 43.2125,65.7188 Q43.2125,67.8125 43.9,68.8828 Q44.5875,69.9531 45.9313,69.9531 Q46.5563,69.9531 47.15,69.6797 Q47.7438,69.4063 48.3688,68.8281 L48.3688,71.5469 Z "/><text fill="#000000" font-family="sans-serif" font-size="12" lengthAdjust="spacingAndGlyphs" textLength="222" x="61.6" y="70.0605">TextprocessingComponentManager</text><line style="stroke: #A80036; stroke-width: 1.5;" x1="21.5" x2="295.5" y1="81.9063" y2="81.9063"/><text fill="#000000" font-family="sans-serif" font-size="11" lengthAdjust="spacingAndGlyphs" textLength="264" x="26.5" y="96.1167">&lt;TextprocessingComponent&gt;List components</text><line style="stroke: #A80036; stroke-width: 1.0;" x1="21.5" x2="295.5" y1="102.7109" y2="102.7109"/><text fill="#000000" font-family="sans-serif" font-size="11" lengthAdjust="spacingAndGlyphs" textLength="211" x="26.5" y="116.9214">String output = process(String input)</text><text fill="#000000" font-family="sans-serif" font-size="11" lengthAdjust="spacingAndGlyphs" textLength="223" x="26.5" y="129.7261">(sends input to each component in list)</text><polygon fill="#FBFB77" filter="url(#f1)" points="332,80.4063,332,105.5391,701,105.5391,701,90.4063,691,80.4063,332,80.4063" style="stroke: #A80036; stroke-width: 1.0;"/><polygon fill="#FBFB77" points="332,80.4063,332,88.9063,296.5957,92.9063,332,96.9063,332,105.5391,701,105.5391,701,90.4063,691,80.4063,332,80.4063" style="stroke: #A80036; stroke-width: 1.0;"/><line style="stroke: #A80036; stroke-width: 1.0;" x1="691" x2="691" y1="80.4063" y2="90.4063"/><line style="stroke: #A80036; stroke-width: 1.0;" x1="701" x2="691" y1="90.4063" y2="90.4063"/><text fill="#000000" font-family="sans-serif" font-size="13" lengthAdjust="spacingAndGlyphs" textLength="185" x="338" y="97.4731">Example of component list in</text><a target="_top" xlink:href="textprocessing2_001.svg" xlink:title="textprocessing2_001.svg"><text fill="#0000FF" font-family="sans-serif" font-size="13" lengthAdjust="spacingAndGlyphs" text-decoration="underline" textLength="159" x="527" y="97.4731">textprocessing2_001.svg</text><line style="stroke: #0000FF; stroke-width: 1.0;" x1="527" x2="686" y1="99.4731" y2="99.4731"/></a><rect fill="#FEFECE" filter="url(#f1)" height="137.6328" style="stroke: #A80036; stroke-width: 1.5;" width="289" x="14" y="195.9063"/><ellipse cx="70.75" cy="211.9063" fill="#ADD1B2" rx="11" ry="11" style="stroke: #A80036; stroke-width: 1.0;"/><path d="M73.7188,217.5469 Q73.1406,217.8438 72.5,217.9922 Q71.8594,218.1406 71.1563,218.1406 Q68.6563,218.1406 67.3359,216.4922 Q66.0156,214.8438 66.0156,211.7188 Q66.0156,208.5938 67.3359,206.9375 Q68.6563,205.2813 71.1563,205.2813 Q71.8594,205.2813 72.5078,205.4375 Q73.1563,205.5938 73.7188,205.8906 L73.7188,208.6094 Q73.0938,208.0313 72.5,207.7578 Q71.9063,207.4844 71.2813,207.4844 Q69.9375,207.4844 69.25,208.5547 Q68.5625,209.625 68.5625,211.7188 Q68.5625,213.8125 69.25,214.8828 Q69.9375,215.9531 71.2813,215.9531 Q71.9063,215.9531 72.5,215.6797 Q73.0938,215.4063 73.7188,214.8281 L73.7188,217.5469 Z "/><text fill="#000000" font-family="sans-serif" font-size="12" lengthAdjust="spacingAndGlyphs" textLength="167" x="91.25" y="216.0605">TextprocessingComponent</text><line style="stroke: #A80036; stroke-width: 1.5;" x1="15" x2="302" y1="227.9063" y2="227.9063"/><text fill="#000000" font-family="sans-serif" font-size="11" lengthAdjust="spacingAndGlyphs" textLength="70" x="20" y="242.1167">String name</text><text fill="#000000" font-family="sans-serif" font-size="11" lengthAdjust="spacingAndGlyphs" textLength="101" x="20" y="254.9214">String description</text><text fill="#000000" font-family="sans-serif" font-size="11" lengthAdjust="spacingAndGlyphs" textLength="277" x="20" y="267.7261">String input_type (e.g. markup with tokenisation)</text><text fill="#000000" font-family="sans-serif" font-size="11" lengthAdjust="spacingAndGlyphs" textLength="262" x="20" y="280.5308">String output_type (e.g. markup with prosody)</text><text fill="#000000" font-family="sans-serif" font-size="11" lengthAdjust="spacingAndGlyphs" textLength="259" x="20" y="293.3354">rules (e.g. regexp rewrite rules, or whatever)</text><line style="stroke: #A80036; stroke-width: 1.0;" x1="15" x2="302" y1="299.9297" y2="299.9297"/><text fill="#000000" font-family="sans-serif" font-size="11" lengthAdjust="spacingAndGlyphs" textLength="198" x="20" y="314.1401">String output process(String input)</text><text fill="#000000" font-family="sans-serif" font-size="11" lengthAdjust="spacingAndGlyphs" textLength="187" x="20" y="326.9448">(modifies the input in some way)</text><rect fill="#FEFECE" filter="url(#f1)" height="158.4375" style="stroke: #A80036; stroke-width: 1.5;" width="305" x="6" y="393.9063"/><ellipse cx="42.6" cy="409.9063" fill="#ADD1B2" rx="11" ry="11" style="stroke: #A80036; stroke-width: 1.0;"/><path d="M45.5688,415.5469 Q44.9906,415.8438 44.35,415.9922 Q43.7094,416.1406 43.0063,416.1406 Q40.5063,416.1406 39.1859,414.4922 Q37.8656,412.8438 37.8656,409.7188 Q37.8656,406.5938 39.1859,404.9375 Q40.5063,403.2813 43.0063,403.2813 Q43.7094,403.2813 44.3578,403.4375 Q45.0063,403.5938 45.5688,403.8906 L45.5688,406.6094 Q44.9438,406.0313 44.35,405.7578 Q43.7563,405.4844 43.1313,405.4844 Q41.7875,405.4844 41.1,406.5547 Q40.4125,407.625 40.4125,409.7188 Q40.4125,411.8125 41.1,412.8828 Q41.7875,413.9531 43.1313,413.9531 Q43.7563,413.9531 44.35,413.6797 Q44.9438,413.4063 45.5688,412.8281 L45.5688,415.5469 Z "/><text fill="#000000" font-family="sans-serif" font-size="12" lengthAdjust="spacingAndGlyphs" textLength="225" x="61.4" y="414.0605">Example_TextprocessingComponent</text><line style="stroke: #A80036; stroke-width: 1.5;" x1="7" x2="310" y1="425.9063" y2="425.9063"/><text fill="#000000" font-family="sans-serif" font-size="11" lengthAdjust="spacingAndGlyphs" textLength="121" x="12" y="440.1167">name = "pos tagger"</text><text fill="#000000" font-family="sans-serif" font-size="11" lengthAdjust="spacingAndGlyphs" textLength="261" x="12" y="452.9214">description = "adds postags to some tokens"</text><text fill="#000000" font-family="sans-serif" font-size="11" lengthAdjust="spacingAndGlyphs" textLength="116" x="12" y="465.7261">input_type = "token"</text><text fill="#000000" font-family="sans-serif" font-size="11" lengthAdjust="spacingAndGlyphs" textLength="114" x="12" y="478.5308">output_type = "pos"</text><text fill="#000000" font-family="sans-serif" font-size="11" lengthAdjust="spacingAndGlyphs" textLength="293" x="12" y="491.3354">rules = "IN if word == 'hej': RG if word /^[0-9]+$/;"</text><line style="stroke: #A80036; stroke-width: 1.0;" x1="7" x2="310" y1="497.9297" y2="497.9297"/><text fill="#000000" font-family="sans-serif" font-size="11" lengthAdjust="spacingAndGlyphs" textLength="198" x="12" y="512.1401">String output process(String input)</text><line style="stroke: #A80036; stroke-width: 1.0; stroke-dasharray: 1.0,2.0;" x1="7" x2="310" y1="518.7344" y2="518.7344"/><text fill="#000000" font-family="sans-serif" font-size="11" lengthAdjust="spacingAndGlyphs" textLength="97" x="12" y="532.9448">input = "hej 123"</text><text fill="#000000" font-family="sans-serif" font-size="11" lengthAdjust="spacingAndGlyphs" textLength="140" x="12" y="545.7495">output = "hej/IN 123/RG"</text><polygon fill="#FBFB77" filter="url(#f1)" points="346.5,460.4063,346.5,485.5391,688.5,485.5391,688.5,470.4063,678.5,460.4063,346.5,460.4063" style="stroke: #A80036; stroke-width: 1.0;"/><polygon fill="#FBFB77" points="346.5,460.4063,346.5,468.9063,311.0049,472.9063,346.5,476.9063,346.5,485.5391,688.5,485.5391,688.5,470.4063,678.5,460.4063,346.5,460.4063" style="stroke: #A80036; stroke-width: 1.0;"/><line style="stroke: #A80036; stroke-width: 1.0;" x1="678.5" x2="678.5" y1="460.4063" y2="470.4063"/><line style="stroke: #A80036; stroke-width: 1.0;" x1="688.5" x2="678.5" y1="470.4063" y2="470.4063"/><text fill="#000000" font-family="sans-serif" font-size="13" lengthAdjust="spacingAndGlyphs" textLength="321" x="352.5" y="477.4731">Contents should ideally be completely userdefined</text><path d="M158.5,136.3092 C158.5,154.3221 158.5,175.6705 158.5,195.745 " fill="none" style="stroke: #A80036; stroke-width: 1.0;"/><path d="M158.5,334.1672 C158.5,353.3122 158.5,374.2315 158.5,393.8857 " fill="none" style="stroke: #A80036; stroke-width: 1.0;"/></g></svg>