<?xml version="1.0" encoding="UTF-8" standalone="yes"?><svg xmlns="http://www.w3.org/2000/svg" xmlns:xlink="http://www.w3.org/1999/xlink" height="1783px" style="width:498px;height:1783px;" version="1.1" viewBox="0 0 498 1783" width="498px"><defs><filter height="300%" id="f1" width="300%" x="-1" y="-1"><feGaussianBlur result="blurOut" stdDeviation="2.0"/><feColorMatrix in="blurOut" result="blurOut2" type="matrix" values="0 0 0 0 0 0 0 0 0 0 0 0 0 0 0 0 0 0 .4 0"/><feOffset dx="4.0" dy="4.0" in="blurOut2" result="blurOut3"/><feBlend in="SourceGraphic" in2="blurOut3" mode="normal"/></filter></defs><g><text fill="#000000" font-family="sans-serif" font-size="18" lengthAdjust="spacingAndGlyphs" textLength="140" x="183.25" y="16.708">Textprocessing:</text><text fill="#000000" font-family="sans-serif" font-size="18" lengthAdjust="spacingAndGlyphs" textLength="243" x="131.75" y="37.6611">example list of components</text><rect fill="#FEFECE" filter="url(#f1)" height="145.6328" style="stroke: #A80036; stroke-width: 1.5;" width="317" x="89" y="49.9063"/><ellipse cx="150.75" cy="65.9063" fill="#ADD1B2" rx="11" ry="11" style="stroke: #A80036; stroke-width: 1.0;"/><path d="M153.7188,71.5469 Q153.1406,71.8438 152.5,71.9922 Q151.8594,72.1406 151.1563,72.1406 Q148.6563,72.1406 147.3359,70.4922 Q146.0156,68.8438 146.0156,65.7188 Q146.0156,62.5938 147.3359,60.9375 Q148.6563,59.2813 151.1563,59.2813 Q151.8594,59.2813 152.5078,59.4375 Q153.1563,59.5938 153.7188,59.8906 L153.7188,62.6094 Q153.0938,62.0313 152.5,61.7578 Q151.9063,61.4844 151.2813,61.4844 Q149.9375,61.4844 149.25,62.5547 Q148.5625,63.625 148.5625,65.7188 Q148.5625,67.8125 149.25,68.8828 Q149.9375,69.9531 151.2813,69.9531 Q151.9063,69.9531 152.5,69.6797 Q153.0938,69.4063 153.7188,68.8281 L153.7188,71.5469 Z "/><text fill="#000000" font-family="sans-serif" font-size="12" lengthAdjust="spacingAndGlyphs" textLength="185" x="171.25" y="70.0605">TextprocessingComponent#1</text><line style="stroke: #A80036; stroke-width: 1.5;" x1="90" x2="405" y1="81.9063" y2="81.9063"/><text fill="#000000" font-family="sans-serif" font-size="11" lengthAdjust="spacingAndGlyphs" textLength="142" x="95" y="96.1167">name = "MultiWordUnits"</text><text fill="#000000" font-family="sans-serif" font-size="11" lengthAdjust="spacingAndGlyphs" textLength="279" x="95" y="108.9214">description = "Tokenises multiword units in text"</text><text fill="#000000" font-family="sans-serif" font-size="11" lengthAdjust="spacingAndGlyphs" textLength="137" x="95" y="121.7261">input_type = "sentence"</text><text fill="#000000" font-family="sans-serif" font-size="11" lengthAdjust="spacingAndGlyphs" textLength="124" x="95" y="134.5308">output_type = "token"</text><text fill="#000000" font-family="sans-serif" font-size="11" lengthAdjust="spacingAndGlyphs" textLength="305" x="95" y="147.3354">rules = "mark token if sentence contains 'vita huset'"</text><line style="stroke: #A80036; stroke-width: 1.0;" x1="90" x2="405" y1="153.9297" y2="153.9297"/><text fill="#000000" font-family="sans-serif" font-size="11" lengthAdjust="spacingAndGlyphs" textLength="197" x="95" y="168.1401">input = "vita huset har 1 234 rum"</text><line style="stroke: #A80036; stroke-width: 1.0; stroke-dasharray: 1.0,2.0;" x1="90" x2="405" y1="174.7344" y2="174.7344"/><text fill="#000000" font-family="sans-serif" font-size="11" lengthAdjust="spacingAndGlyphs" textLength="249" x="95" y="188.9448">output = "&lt;t&gt;vita huset&lt;/t&gt;har 1 234 rum"</text><rect fill="#FEFECE" filter="url(#f1)" height="145.6328" style="stroke: #A80036; stroke-width: 1.5;" width="309" x="93" y="255.9063"/><ellipse cx="150.75" cy="271.9063" fill="#ADD1B2" rx="11" ry="11" style="stroke: #A80036; stroke-width: 1.0;"/><path d="M153.7188,277.5469 Q153.1406,277.8438 152.5,277.9922 Q151.8594,278.1406 151.1563,278.1406 Q148.6563,278.1406 147.3359,276.4922 Q146.0156,274.8438 146.0156,271.7188 Q146.0156,268.5938 147.3359,266.9375 Q148.6563,265.2813 151.1563,265.2813 Q151.8594,265.2813 152.5078,265.4375 Q153.1563,265.5938 153.7188,265.8906 L153.7188,268.6094 Q153.0938,268.0313 152.5,267.7578 Q151.9063,267.4844 151.2813,267.4844 Q149.9375,267.4844 149.25,268.5547 Q148.5625,269.625 148.5625,271.7188 Q148.5625,273.8125 149.25,274.8828 Q149.9375,275.9531 151.2813,275.9531 Q151.9063,275.9531 152.5,275.6797 Q153.0938,275.4063 153.7188,274.8281 L153.7188,277.5469 Z "/><text fill="#000000" font-family="sans-serif" font-size="12" lengthAdjust="spacingAndGlyphs" textLength="185" x="171.25" y="276.0605">TextprocessingComponent#2</text><line style="stroke: #A80036; stroke-width: 1.5;" x1="94" x2="401" y1="287.9063" y2="287.9063"/><text fill="#000000" font-family="sans-serif" font-size="11" lengthAdjust="spacingAndGlyphs" textLength="110" x="99" y="302.1167">name = "numbers"</text><text fill="#000000" font-family="sans-serif" font-size="11" lengthAdjust="spacingAndGlyphs" textLength="242" x="99" y="314.9214">description = "Tokenises numbers in text"</text><text fill="#000000" font-family="sans-serif" font-size="11" lengthAdjust="spacingAndGlyphs" textLength="137" x="99" y="327.7261">input_type = "sentence"</text><text fill="#000000" font-family="sans-serif" font-size="11" lengthAdjust="spacingAndGlyphs" textLength="124" x="99" y="340.5308">output_type = "token"</text><text fill="#000000" font-family="sans-serif" font-size="11" lengthAdjust="spacingAndGlyphs" textLength="278" x="99" y="353.3354">rules = "mark token if sentence contains [0-9]+"</text><line style="stroke: #A80036; stroke-width: 1.0;" x1="94" x2="401" y1="359.9297" y2="359.9297"/><text fill="#000000" font-family="sans-serif" font-size="11" lengthAdjust="spacingAndGlyphs" textLength="245" x="99" y="374.1401">input = "&lt;t&gt;vita huset&lt;/t&gt; har 1 234 rum"</text><line style="stroke: #A80036; stroke-width: 1.0; stroke-dasharray: 1.0,2.0;" x1="94" x2="401" y1="380.7344" y2="380.7344"/><text fill="#000000" font-family="sans-serif" font-size="11" lengthAdjust="spacingAndGlyphs" textLength="297" x="99" y="394.9448">output = "&lt;t&gt;vita huset&lt;/t&gt;har &lt;t&gt;1 234&lt;/t&gt; rum"</text><rect fill="#FEFECE" filter="url(#f1)" height="184.0469" style="stroke: #A80036; stroke-width: 1.5;" width="319" x="88" y="461.9063"/><ellipse cx="150.75" cy="477.9063" fill="#ADD1B2" rx="11" ry="11" style="stroke: #A80036; stroke-width: 1.0;"/><path d="M153.7188,483.5469 Q153.1406,483.8438 152.5,483.9922 Q151.8594,484.1406 151.1563,484.1406 Q148.6563,484.1406 147.3359,482.4922 Q146.0156,480.8438 146.0156,477.7188 Q146.0156,474.5938 147.3359,472.9375 Q148.6563,471.2813 151.1563,471.2813 Q151.8594,471.2813 152.5078,471.4375 Q153.1563,471.5938 153.7188,471.8906 L153.7188,474.6094 Q153.0938,474.0313 152.5,473.7578 Q151.9063,473.4844 151.2813,473.4844 Q149.9375,473.4844 149.25,474.5547 Q148.5625,475.625 148.5625,477.7188 Q148.5625,479.8125 149.25,480.8828 Q149.9375,481.9531 151.2813,481.9531 Q151.9063,481.9531 152.5,481.6797 Q153.0938,481.4063 153.7188,480.8281 L153.7188,483.5469 Z "/><text fill="#000000" font-family="sans-serif" font-size="12" lengthAdjust="spacingAndGlyphs" textLength="185" x="171.25" y="482.0605">TextprocessingComponent#3</text><line style="stroke: #A80036; stroke-width: 1.5;" x1="89" x2="406" y1="493.9063" y2="493.9063"/><text fill="#000000" font-family="sans-serif" font-size="11" lengthAdjust="spacingAndGlyphs" textLength="155" x="94" y="508.1167">name = "default tokeniser"</text><text fill="#000000" font-family="sans-serif" font-size="11" lengthAdjust="spacingAndGlyphs" textLength="286" x="94" y="520.9214">description = "splits untokenised text into tokens"</text><text fill="#000000" font-family="sans-serif" font-size="11" lengthAdjust="spacingAndGlyphs" textLength="137" x="94" y="533.7261">input_type = "sentence"</text><text fill="#000000" font-family="sans-serif" font-size="11" lengthAdjust="spacingAndGlyphs" textLength="124" x="94" y="546.5308">output_type = "token"</text><text fill="#000000" font-family="sans-serif" font-size="11" lengthAdjust="spacingAndGlyphs" textLength="307" x="94" y="559.3354">rules = "mark token if sentence contains whitespace"</text><line style="stroke: #A80036; stroke-width: 1.0;" x1="89" x2="406" y1="565.9297" y2="565.9297"/><text fill="#000000" font-family="sans-serif" font-size="11" lengthAdjust="spacingAndGlyphs" textLength="289" x="94" y="580.1401">input = "&lt;t&gt;vita huset&lt;/t&gt;har &lt;t&gt;1 234&lt;/t&gt; rum"</text><line style="stroke: #A80036; stroke-width: 1.0; stroke-dasharray: 1.0,2.0;" x1="89" x2="406" y1="586.7344" y2="586.7344"/><text fill="#000000" font-family="sans-serif" font-size="11" lengthAdjust="spacingAndGlyphs" textLength="162" x="94" y="600.9448">output = "&lt;t&gt;vita huset&lt;/t&gt;</text><text fill="#000000" font-family="sans-serif" font-size="11" lengthAdjust="spacingAndGlyphs" textLength="67" x="94" y="613.7495">&lt;t&gt;har&lt;/t&gt;</text><text fill="#000000" font-family="sans-serif" font-size="11" lengthAdjust="spacingAndGlyphs" textLength="80" x="94" y="626.5542">&lt;t&gt;1 234&lt;/t&gt;</text><text fill="#000000" font-family="sans-serif" font-size="11" lengthAdjust="spacingAndGlyphs" textLength="76" x="94" y="639.3589">&lt;t&gt;rum&lt;/t&gt;"</text><rect fill="#FEFECE" filter="url(#f1)" height="222.4609" style="stroke: #A80036; stroke-width: 1.5;" width="326" x="84.25" y="705.9063"/><ellipse cx="150.5" cy="721.9063" fill="#ADD1B2" rx="11" ry="11" style="stroke: #A80036; stroke-width: 1.0;"/><path d="M153.4688,727.5469 Q152.8906,727.8438 152.25,727.9922 Q151.6094,728.1406 150.9063,728.1406 Q148.4063,728.1406 147.0859,726.4922 Q145.7656,724.8438 145.7656,721.7188 Q145.7656,718.5938 147.0859,716.9375 Q148.4063,715.2813 150.9063,715.2813 Q151.6094,715.2813 152.2578,715.4375 Q152.9063,715.5938 153.4688,715.8906 L153.4688,718.6094 Q152.8438,718.0313 152.25,717.7578 Q151.6563,717.4844 151.0313,717.4844 Q149.6875,717.4844 149,718.5547 Q148.3125,719.625 148.3125,721.7188 Q148.3125,723.8125 149,724.8828 Q149.6875,725.9531 151.0313,725.9531 Q151.6563,725.9531 152.25,725.6797 Q152.8438,725.4063 153.4688,724.8281 L153.4688,727.5469 Z "/><text fill="#000000" font-family="sans-serif" font-size="12" lengthAdjust="spacingAndGlyphs" textLength="185" x="171" y="726.0605">TextprocessingComponent#4</text><line style="stroke: #A80036; stroke-width: 1.5;" x1="85.25" x2="409.25" y1="737.9063" y2="737.9063"/><text fill="#000000" font-family="sans-serif" font-size="11" lengthAdjust="spacingAndGlyphs" textLength="121" x="90.25" y="752.1167">name = "pos tagger"</text><text fill="#000000" font-family="sans-serif" font-size="11" lengthAdjust="spacingAndGlyphs" textLength="261" x="90.25" y="764.9214">description = "adds postags to some tokens"</text><text fill="#000000" font-family="sans-serif" font-size="11" lengthAdjust="spacingAndGlyphs" textLength="116" x="90.25" y="777.7261">input_type = "token"</text><text fill="#000000" font-family="sans-serif" font-size="11" lengthAdjust="spacingAndGlyphs" textLength="114" x="90.25" y="790.5308">output_type = "pos"</text><text fill="#000000" font-family="sans-serif" font-size="11" lengthAdjust="spacingAndGlyphs" textLength="314" x="90.25" y="803.3354">rules = "IN if word == 'hej': RG if word /^[0-9]+$/; etc"</text><line style="stroke: #A80036; stroke-width: 1.0;" x1="85.25" x2="409.25" y1="809.9297" y2="809.9297"/><text fill="#000000" font-family="sans-serif" font-size="11" lengthAdjust="spacingAndGlyphs" textLength="154" x="90.25" y="824.1401">input = "&lt;t&gt;vita huset&lt;/t&gt;</text><text fill="#000000" font-family="sans-serif" font-size="11" lengthAdjust="spacingAndGlyphs" textLength="67" x="90.25" y="836.9448">&lt;t&gt;har&lt;/t&gt;</text><text fill="#000000" font-family="sans-serif" font-size="11" lengthAdjust="spacingAndGlyphs" textLength="80" x="90.25" y="849.7495">&lt;t&gt;1 234&lt;/t&gt;</text><text fill="#000000" font-family="sans-serif" font-size="11" lengthAdjust="spacingAndGlyphs" textLength="76" x="90.25" y="862.5542">&lt;t&gt;rum&lt;/t&gt;"</text><line style="stroke: #A80036; stroke-width: 1.0; stroke-dasharray: 1.0,2.0;" x1="85.25" x2="409.25" y1="869.1484" y2="869.1484"/><text fill="#000000" font-family="sans-serif" font-size="11" lengthAdjust="spacingAndGlyphs" textLength="218" x="90.25" y="883.3589">output = "&lt;t pos='NN'&gt;vita huset&lt;/t&gt;</text><text fill="#000000" font-family="sans-serif" font-size="11" lengthAdjust="spacingAndGlyphs" textLength="122" x="90.25" y="896.1636">&lt;t pos='VB'&gt;har&lt;/t&gt;</text><text fill="#000000" font-family="sans-serif" font-size="11" lengthAdjust="spacingAndGlyphs" textLength="136" x="90.25" y="908.9683">&lt;t pos='RG'&gt;1 234&lt;/t&gt;</text><text fill="#000000" font-family="sans-serif" font-size="11" lengthAdjust="spacingAndGlyphs" textLength="132" x="90.25" y="921.7729">&lt;t pos='NN'&gt;rum&lt;/t&gt;"</text><rect fill="#FEFECE" filter="url(#f1)" height="222.4609" style="stroke: #A80036; stroke-width: 1.5;" width="483" x="6" y="987.9063"/><ellipse cx="150.75" cy="1003.9063" fill="#ADD1B2" rx="11" ry="11" style="stroke: #A80036; stroke-width: 1.0;"/><path d="M153.7188,1009.5469 Q153.1406,1009.8438 152.5,1009.9922 Q151.8594,1010.1406 151.1563,1010.1406 Q148.6563,1010.1406 147.3359,1008.4922 Q146.0156,1006.8438 146.0156,1003.7188 Q146.0156,1000.5938 147.3359,998.9375 Q148.6563,997.2813 151.1563,997.2813 Q151.8594,997.2813 152.5078,997.4375 Q153.1563,997.5938 153.7188,997.8906 L153.7188,1000.6094 Q153.0938,1000.0313 152.5,999.7578 Q151.9063,999.4844 151.2813,999.4844 Q149.9375,999.4844 149.25,1000.5547 Q148.5625,1001.625 148.5625,1003.7188 Q148.5625,1005.8125 149.25,1006.8828 Q149.9375,1007.9531 151.2813,1007.9531 Q151.9063,1007.9531 152.5,1007.6797 Q153.0938,1007.4063 153.7188,1006.8281 L153.7188,1009.5469 Z "/><text fill="#000000" font-family="sans-serif" font-size="12" lengthAdjust="spacingAndGlyphs" textLength="185" x="171.25" y="1008.0605">TextprocessingComponent#5</text><line style="stroke: #A80036; stroke-width: 1.5;" x1="7" x2="488" y1="1019.9063" y2="1019.9063"/><text fill="#000000" font-family="sans-serif" font-size="11" lengthAdjust="spacingAndGlyphs" textLength="184" x="12" y="1034.1167">name = "number pronunciation"</text><text fill="#000000" font-family="sans-serif" font-size="11" lengthAdjust="spacingAndGlyphs" textLength="299" x="12" y="1046.9214">description = "adds transcription to number tokens"</text><text fill="#000000" font-family="sans-serif" font-size="11" lengthAdjust="spacingAndGlyphs" textLength="116" x="12" y="1059.7261">input_type = "token"</text><text fill="#000000" font-family="sans-serif" font-size="11" lengthAdjust="spacingAndGlyphs" textLength="165" x="12" y="1072.5308">output_type = "transcription"</text><text fill="#000000" font-family="sans-serif" font-size="11" lengthAdjust="spacingAndGlyphs" textLength="266" x="12" y="1085.3354">rules = "'e t u s e n' if /^1[0-9][0-9][0-9]$/ etc"</text><line style="stroke: #A80036; stroke-width: 1.0;" x1="7" x2="488" y1="1091.9297" y2="1091.9297"/><text fill="#000000" font-family="sans-serif" font-size="11" lengthAdjust="spacingAndGlyphs" textLength="210" x="12" y="1106.1401">input = "&lt;t pos='NN'&gt;vita huset&lt;/t&gt;</text><text fill="#000000" font-family="sans-serif" font-size="11" lengthAdjust="spacingAndGlyphs" textLength="122" x="12" y="1118.9448">&lt;t pos='VB'&gt;har&lt;/t&gt;</text><text fill="#000000" font-family="sans-serif" font-size="11" lengthAdjust="spacingAndGlyphs" textLength="136" x="12" y="1131.7495">&lt;t pos='RG'&gt;1 234&lt;/t&gt;</text><text fill="#000000" font-family="sans-serif" font-size="11" lengthAdjust="spacingAndGlyphs" textLength="132" x="12" y="1144.5542">&lt;t pos='NN'&gt;rum&lt;/t&gt;"</text><line style="stroke: #A80036; stroke-width: 1.0; stroke-dasharray: 1.0,2.0;" x1="7" x2="488" y1="1151.1484" y2="1151.1484"/><text fill="#000000" font-family="sans-serif" font-size="11" lengthAdjust="spacingAndGlyphs" textLength="222" x="12" y="1165.3589">output = "&lt;t pos='NN' &gt;vita huset&lt;/t&gt;</text><text fill="#000000" font-family="sans-serif" font-size="11" lengthAdjust="spacingAndGlyphs" textLength="122" x="12" y="1178.1636">&lt;t pos='VB'&gt;har&lt;/t&gt;</text><text fill="#000000" font-family="sans-serif" font-size="11" lengthAdjust="spacingAndGlyphs" textLength="471" x="12" y="1190.9683">&lt;t pos='RG' transcription='e t u s e n t v å h u n d r a t r e t i o f y r a'&gt;1 234&lt;/t&gt;</text><text fill="#000000" font-family="sans-serif" font-size="11" lengthAdjust="spacingAndGlyphs" textLength="132" x="12" y="1203.7729">&lt;t pos='NN'&gt;rum&lt;/t&gt;"</text><rect fill="#FEFECE" filter="url(#f1)" height="222.4609" style="stroke: #A80036; stroke-width: 1.5;" width="483" x="6" y="1269.9063"/><ellipse cx="150.75" cy="1285.9063" fill="#ADD1B2" rx="11" ry="11" style="stroke: #A80036; stroke-width: 1.0;"/><path d="M153.7188,1291.5469 Q153.1406,1291.8438 152.5,1291.9922 Q151.8594,1292.1406 151.1563,1292.1406 Q148.6563,1292.1406 147.3359,1290.4922 Q146.0156,1288.8438 146.0156,1285.7188 Q146.0156,1282.5938 147.3359,1280.9375 Q148.6563,1279.2813 151.1563,1279.2813 Q151.8594,1279.2813 152.5078,1279.4375 Q153.1563,1279.5938 153.7188,1279.8906 L153.7188,1282.6094 Q153.0938,1282.0313 152.5,1281.7578 Q151.9063,1281.4844 151.2813,1281.4844 Q149.9375,1281.4844 149.25,1282.5547 Q148.5625,1283.625 148.5625,1285.7188 Q148.5625,1287.8125 149.25,1288.8828 Q149.9375,1289.9531 151.2813,1289.9531 Q151.9063,1289.9531 152.5,1289.6797 Q153.0938,1289.4063 153.7188,1288.8281 L153.7188,1291.5469 Z "/><text fill="#000000" font-family="sans-serif" font-size="12" lengthAdjust="spacingAndGlyphs" textLength="185" x="171.25" y="1290.0605">TextprocessingComponent#6</text><line style="stroke: #A80036; stroke-width: 1.5;" x1="7" x2="488" y1="1301.9063" y2="1301.9063"/><text fill="#000000" font-family="sans-serif" font-size="11" lengthAdjust="spacingAndGlyphs" textLength="139" x="12" y="1316.1167">name = "lexicon lookup"</text><text fill="#000000" font-family="sans-serif" font-size="11" lengthAdjust="spacingAndGlyphs" textLength="251" x="12" y="1328.9214">description = "adds transcription to tokens"</text><text fill="#000000" font-family="sans-serif" font-size="11" lengthAdjust="spacingAndGlyphs" textLength="116" x="12" y="1341.7261">input_type = "token"</text><text fill="#000000" font-family="sans-serif" font-size="11" lengthAdjust="spacingAndGlyphs" textLength="165" x="12" y="1354.5308">output_type = "transcription"</text><text fill="#000000" font-family="sans-serif" font-size="11" lengthAdjust="spacingAndGlyphs" textLength="275" x="12" y="1367.3354">rules = "lookup untranscribed tokens in lexicon"</text><line style="stroke: #A80036; stroke-width: 1.0;" x1="7" x2="488" y1="1373.9297" y2="1373.9297"/><text fill="#000000" font-family="sans-serif" font-size="11" lengthAdjust="spacingAndGlyphs" textLength="210" x="12" y="1388.1401">input = "&lt;t pos='NN'&gt;vita huset&lt;/t&gt;</text><text fill="#000000" font-family="sans-serif" font-size="11" lengthAdjust="spacingAndGlyphs" textLength="122" x="12" y="1400.9448">&lt;t pos='VB'&gt;har&lt;/t&gt;</text><text fill="#000000" font-family="sans-serif" font-size="11" lengthAdjust="spacingAndGlyphs" textLength="471" x="12" y="1413.7495">&lt;t pos='RG' transcription='e t u s e n t v å h u n d r a t r e t i o f y r a'&gt;1 234&lt;/t&gt;</text><text fill="#000000" font-family="sans-serif" font-size="11" lengthAdjust="spacingAndGlyphs" textLength="132" x="12" y="1426.5542">&lt;t pos='NN'&gt;rum&lt;/t&gt;"</text><line style="stroke: #A80036; stroke-width: 1.0; stroke-dasharray: 1.0,2.0;" x1="7" x2="488" y1="1433.1484" y2="1433.1484"/><text fill="#000000" font-family="sans-serif" font-size="11" lengthAdjust="spacingAndGlyphs" textLength="222" x="12" y="1447.3589">output = "&lt;t pos='NN' &gt;vita huset&lt;/t&gt;</text><text fill="#000000" font-family="sans-serif" font-size="11" lengthAdjust="spacingAndGlyphs" textLength="240" x="12" y="1460.1636">&lt;t pos='VB' transcription='h a r'&gt;har&lt;/t&gt;</text><text fill="#000000" font-family="sans-serif" font-size="11" lengthAdjust="spacingAndGlyphs" textLength="471" x="12" y="1472.9683">&lt;t pos='RG' transcription='e t u s e n t v å h u n d r a t r e t i o f y r a'&gt;1 234&lt;/t&gt;</text><text fill="#000000" font-family="sans-serif" font-size="11" lengthAdjust="spacingAndGlyphs" textLength="254" x="12" y="1485.7729">&lt;t pos='NN' transcription='r u m'&gt;rum&lt;/t&gt;"</text><rect fill="#FEFECE" filter="url(#f1)" height="222.4609" style="stroke: #A80036; stroke-width: 1.5;" width="483" x="6" y="1551.9063"/><ellipse cx="150.75" cy="1567.9063" fill="#ADD1B2" rx="11" ry="11" style="stroke: #A80036; stroke-width: 1.0;"/><path d="M153.7188,1573.5469 Q153.1406,1573.8438 152.5,1573.9922 Q151.8594,1574.1406 151.1563,1574.1406 Q148.6563,1574.1406 147.3359,1572.4922 Q146.0156,1570.8438 146.0156,1567.7188 Q146.0156,1564.5938 147.3359,1562.9375 Q148.6563,1561.2813 151.1563,1561.2813 Q151.8594,1561.2813 152.5078,1561.4375 Q153.1563,1561.5938 153.7188,1561.8906 L153.7188,1564.6094 Q153.0938,1564.0313 152.5,1563.7578 Q151.9063,1563.4844 151.2813,1563.4844 Q149.9375,1563.4844 149.25,1564.5547 Q148.5625,1565.625 148.5625,1567.7188 Q148.5625,1569.8125 149.25,1570.8828 Q149.9375,1571.9531 151.2813,1571.9531 Q151.9063,1571.9531 152.5,1571.6797 Q153.0938,1571.4063 153.7188,1570.8281 L153.7188,1573.5469 Z "/><text fill="#000000" font-family="sans-serif" font-size="12" lengthAdjust="spacingAndGlyphs" textLength="185" x="171.25" y="1572.0605">TextprocessingComponent#7</text><line style="stroke: #A80036; stroke-width: 1.5;" x1="7" x2="488" y1="1583.9063" y2="1583.9063"/><text fill="#000000" font-family="sans-serif" font-size="11" lengthAdjust="spacingAndGlyphs" textLength="106" x="12" y="1598.1167">name = "lts rules"</text><text fill="#000000" font-family="sans-serif" font-size="11" lengthAdjust="spacingAndGlyphs" textLength="358" x="12" y="1610.9214">description = "adds transcription to any untranscribed tokens"</text><text fill="#000000" font-family="sans-serif" font-size="11" lengthAdjust="spacingAndGlyphs" textLength="116" x="12" y="1623.7261">input_type = "token"</text><text fill="#000000" font-family="sans-serif" font-size="11" lengthAdjust="spacingAndGlyphs" textLength="165" x="12" y="1636.5308">output_type = "transcription"</text><text fill="#000000" font-family="sans-serif" font-size="11" lengthAdjust="spacingAndGlyphs" textLength="110" x="12" y="1649.3354">rules = "v -&gt; v etc"</text><line style="stroke: #A80036; stroke-width: 1.0;" x1="7" x2="488" y1="1655.9297" y2="1655.9297"/><text fill="#000000" font-family="sans-serif" font-size="11" lengthAdjust="spacingAndGlyphs" textLength="210" x="12" y="1670.1401">input = "&lt;t pos='NN'&gt;vita huset&lt;/t&gt;</text><text fill="#000000" font-family="sans-serif" font-size="11" lengthAdjust="spacingAndGlyphs" textLength="240" x="12" y="1682.9448">&lt;t pos='VB' transcription='h a r'&gt;har&lt;/t&gt;</text><text fill="#000000" font-family="sans-serif" font-size="11" lengthAdjust="spacingAndGlyphs" textLength="471" x="12" y="1695.7495">&lt;t pos='RG' transcription='e t u s e n t v å h u n d r a t r e t i o f y r a'&gt;1 234&lt;/t&gt;</text><text fill="#000000" font-family="sans-serif" font-size="11" lengthAdjust="spacingAndGlyphs" textLength="254" x="12" y="1708.5542">&lt;t pos='NN' transcription='r u m'&gt;rum&lt;/t&gt;"</text><line style="stroke: #A80036; stroke-width: 1.0; stroke-dasharray: 1.0,2.0;" x1="7" x2="488" y1="1715.1484" y2="1715.1484"/><text fill="#000000" font-family="sans-serif" font-size="11" lengthAdjust="spacingAndGlyphs" textLength="393" x="12" y="1729.3589">output = "&lt;t pos='NN' transcription='v i t a h u s e t'&gt;vita huset&lt;/t&gt;</text><text fill="#000000" font-family="sans-serif" font-size="11" lengthAdjust="spacingAndGlyphs" textLength="240" x="12" y="1742.1636">&lt;t pos='VB' transcription='h a r'&gt;har&lt;/t&gt;</text><text fill="#000000" font-family="sans-serif" font-size="11" lengthAdjust="spacingAndGlyphs" textLength="471" x="12" y="1754.9683">&lt;t pos='RG' transcription='e t u s e n t v å h u n d r a t r e t i o f y r a'&gt;1 234&lt;/t&gt;</text><text fill="#000000" font-family="sans-serif" font-size="11" lengthAdjust="spacingAndGlyphs" textLength="254" x="12" y="1767.7729">&lt;t pos='NN' transcription='r u m'&gt;rum&lt;/t&gt;"</text><path d="M247.25,196.1163 C247.25,213.8263 247.25,232.8363 247.25,250.7662 " fill="none" style="stroke: #A80036; stroke-width: 1.0;"/><polygon fill="#A80036" points="247.25,255.7963,251.25,246.7963,247.25,250.7963,243.25,246.7963,247.25,255.7963" style="stroke: #A80036; stroke-width: 1.0;"/><path d="M247.25,401.9962 C247.25,419.4462 247.25,438.3763 247.25,456.7362 " fill="none" style="stroke: #A80036; stroke-width: 1.0;"/><polygon fill="#A80036" points="247.25,461.8963,251.25,452.8963,247.25,456.8963,243.25,452.8963,247.25,461.8963" style="stroke: #A80036; stroke-width: 1.0;"/><path d="M247.25,646.1963 C247.25,663.7963 247.25,682.4463 247.25,700.6963 " fill="none" style="stroke: #A80036; stroke-width: 1.0;"/><polygon fill="#A80036" points="247.25,705.8263,251.25,696.8263,247.25,700.8263,243.25,696.8263,247.25,705.8263" style="stroke: #A80036; stroke-width: 1.0;"/><path d="M247.25,928.1673 C247.25,946.0733 247.25,964.6583 247.25,982.6783 " fill="none" style="stroke: #A80036; stroke-width: 1.0;"/><polygon fill="#A80036" points="247.25,987.7453,251.25,978.7453,247.25,982.7453,243.25,978.7453,247.25,987.7453" style="stroke: #A80036; stroke-width: 1.0;"/><path d="M247.25,1210.1673 C247.25,1228.0733 247.25,1246.6583 247.25,1264.6783 " fill="none" style="stroke: #A80036; stroke-width: 1.0;"/><polygon fill="#A80036" points="247.25,1269.7453,251.25,1260.7453,247.25,1264.7453,243.25,1260.7453,247.25,1269.7453" style="stroke: #A80036; stroke-width: 1.0;"/><path d="M247.25,1492.1673 C247.25,1510.0733 247.25,1528.6583 247.25,1546.6783 " fill="none" style="stroke: #A80036; stroke-width: 1.0;"/><polygon fill="#A80036" points="247.25,1551.7453,251.25,1542.7453,247.25,1546.7453,243.25,1542.7453,247.25,1551.7453" style="stroke: #A80036; stroke-width: 1.0;"/></g></svg>