<?xml version="1.0" encoding="UTF-8" standalone="yes"?><svg xmlns="http://www.w3.org/2000/svg" xmlns:xlink="http://www.w3.org/1999/xlink" height="90px" style="width:346px;height:90px;" version="1.1" viewBox="0 0 346 90" width="346px"><defs><filter height="300%" id="f1" width="300%" x="-1" y="-1"><feGaussianBlur result="blurOut" stdDeviation="2.0"/><feColorMatrix in="blurOut" result="blurOut2" type="matrix" values="0 0 0 0 0 0 0 0 0 0 0 0 0 0 0 0 0 0 .4 0"/><feOffset dx="4.0" dy="4.0" in="blurOut2" result="blurOut3"/><feBlend in="SourceGraphic" in2="blurOut3" mode="normal"/></filter></defs><g><rect fill="#FEFECE" filter="url(#f1)" height="73.6094" style="stroke: #A80036; stroke-width: 1.5;" width="331" x="6" y="8"/><ellipse cx="122.75" cy="24" fill="#ADD1B2" rx="11" ry="11" style="stroke: #A80036; stroke-width: 1.0;"/><path d="M125.7188,29.6406 Q125.1406,29.9375 124.5,30.0859 Q123.8594,30.2344 123.1563,30.2344 Q120.6563,30.2344 119.3359,28.5859 Q118.0156,26.9375 118.0156,23.8125 Q118.0156,20.6875 119.3359,19.0313 Q120.6563,17.375 123.1563,17.375 Q123.8594,17.375 124.5078,17.5313 Q125.1563,17.6875 125.7188,17.9844 L125.7188,20.7031 Q125.0938,20.125 124.5,19.8516 Q123.9063,19.5781 123.2813,19.5781 Q121.9375,19.5781 121.25,20.6484 Q120.5625,21.7188 120.5625,23.8125 Q120.5625,25.9063 121.25,26.9766 Q121.9375,28.0469 123.2813,28.0469 Q123.9063,28.0469 124.5,27.7734 Q125.0938,27.5 125.7188,26.9219 L125.7188,29.6406 Z "/><text fill="#000000" font-family="sans-serif" font-size="12" lengthAdjust="spacingAndGlyphs" textLength="89" x="143.25" y="28.1543">WikispeechApi</text><line style="stroke: #A80036; stroke-width: 1.5;" x1="7" x2="336" y1="40" y2="40"/><text fill="#000000" font-family="sans-serif" font-size="11" lengthAdjust="spacingAndGlyphs" textLength="310" x="12" y="54.2104">GET param=text, returns synthesis audio and markup</text><text fill="#000000" font-family="sans-serif" font-size="11" lengthAdjust="spacingAndGlyphs" textLength="319" x="12" y="67.0151">GET param=textId, returns recording audio and markup</text><line style="stroke: #A80036; stroke-width: 1.5;" x1="7" x2="336" y1="73.6094" y2="73.6094"/></g></svg>